<?xml version="1.0" encoding="utf-8"?>
<!-- Generator: Adobe Illustrator 22.0.1, SVG Export Plug-In . SVG Version: 6.00 Build 0)  -->
<svg version="1.1" id="Layer_1" xmlns="http://www.w3.org/2000/svg" xmlns:xlink="http://www.w3.org/1999/xlink" x="0px" y="0px"
	 viewBox="0 0 72.8 75.1" style="enable-background:new 0 0 72.8 75.1;" xml:space="preserve">
<style type="text/css">
	.st0{stroke:#000000;stroke-width:2;stroke-miterlimit:10;}
	.st1{fill:none;stroke:#000000;stroke-width:3;stroke-miterlimit:10;}
	.st2{fill:none;stroke:#000000;stroke-width:4;stroke-miterlimit:10;}
	.st3{fill-rule:evenodd;clip-rule:evenodd;fill:none;stroke:#000000;stroke-width:4;stroke-miterlimit:10;}
	.st4{fill:#0175D8;}
	.st5{fill:#01685C;}
	.st6{fill:#007F80;}
	.st7{fill:none;stroke:#0175D8;stroke-width:4;stroke-miterlimit:10;}
	.st8{fill:none;stroke:#0175D8;stroke-width:2;stroke-miterlimit:10;}
	.st9{fill:none;}
</style>
<polygon class="st5" points="3.7,39.5 3.7,39.5 3.7,39.5 "/>
<polygon class="st6" points="12.9,20.8 12.9,20.8 12.9,20.8 "/>
<g>
	<polygon class="st6" points="19.9,67.1 19.9,67.1 19.9,67.1 	"/>
	<polygon class="st6" points="60.9,24.4 60.9,24.4 60.9,24.4 	"/>
	<polygon class="st6" points="10.8,24.8 10.8,24.8 10.8,24.8 	"/>
	<path class="st6" d="M59.3,60.9L59.3,60.9L59.3,60.9c-0.1-0.7-0.3-1.4-0.6-2.2l0,0c-0.8-2.9-2.3-7.4-3.6-11.2
		c-0.5-1.4-0.9-2.8-1.3-3.9c1.6-1.2,3.7-2.8,5.8-4.4c2.1-1.6,4.2-3.2,5.8-4.5c0.8-0.6,1.5-1.2,2-1.6c0.3-0.2,0.5-0.4,0.7-0.6l0,0
		l0.3-0.3l0.1-0.1l0.3-0.3l0-0.1l0-0.1c0-0.1,0.2-0.3,0.4-0.6l0,0l0,0c0.1-0.1,0.2-0.4,0.3-0.7l0,0l0,0c0.1-0.2,0.2-0.8,0.2-1.4v0
		l0-0.3l0-0.2L69.6,28l0,0l0,0c-0.2-1.1-0.8-1.8-1.2-2.2l0,0l0,0c-0.3-0.3-0.7-0.6-1-0.7c-0.1-0.1-0.3-0.1-0.4-0.2l-0.1,0l0,0
		l-0.1,0l-0.1,0c-0.2-0.1-0.4-0.1-0.6-0.2l-0.2,0l0,0l0,0l-0.1,0c-0.3,0-0.5-0.1-0.6-0.1l0,0l0,0c-0.5,0-1,0-1.7,0l0,0
		c-0.2,0-0.4,0-0.6,0c-0.6,0-1.2,0-2,0l0,0c-4,0-9.8,0.1-13.4,0.2c-0.6-1.9-1.4-4.5-2.2-7c-0.4-1.2-1.2-4-2-6.7
		c-0.4-1.3-0.8-2.6-1.1-3.7c-0.2-0.5-0.3-1-0.4-1.4c-0.1-0.4-0.2-0.7-0.3-0.9c-0.2-0.5-0.4-0.9-0.7-1.3c-0.4-0.6-1-1-1.6-1.3
		c-0.6-0.2-1.1-0.3-1.5-0.3l-0.2,0l0,0c-0.8,0-1.5,0.3-2,0.7c-0.8,0.6-1.2,1.3-1.4,1.9c-0.1,0.4-0.2,0.7-0.3,0.8l-5.9,19.3
		c-2.8,0-6.9,0-10.5,0c-1.8,0-3.5,0-4.8,0c-0.7,0-1.3,0-1.8,0c-0.2,0-0.4,0-0.6,0l0,0l-0.3,0l-0.1,0l-0.1,0c0,0-0.1,0-0.2,0
		c-0.1,0-0.2,0-0.3,0.1l0,0l0,0c0,0-0.1,0-0.3,0.1c-0.1,0-0.3,0.1-0.5,0.2l0,0l0,0c-0.1,0.1-0.5,0.3-0.9,0.6l0,0l0,0
		c-0.2,0.1-0.4,0.4-0.7,0.7C6.4,27,6.2,27.4,6,27.9l0,0l-0.1,0.4l-0.1,0.3l0,0.7l0,0l0,0c0,0.4,0.1,0.8,0.2,1.1
		c0.1,0.3,0.2,0.5,0.2,0.6l0,0.1l0,0.1c0.1,0.3,0.2,0.5,0.4,0.6l0.1,0.2l0,0l0,0l0,0C6.9,32.3,7,32.4,7,32.5l0.1,0.1l0,0l0,0l0,0
		l0,0c0.1,0.1,0.2,0.2,0.3,0.3c0.1,0.1,0.2,0.1,0.3,0.2l0,0l0,0c0.7,0.6,2.1,1.6,3.7,2.9c3.2,2.4,7.6,5.7,10.4,7.8
		c-0.1,0.4-0.3,0.9-0.5,1.4c-0.9,2.8-2.1,6.5-3.1,9.7c-0.5,1.6-0.9,3.1-1.2,4.3c-0.2,0.6-0.3,1.1-0.4,1.6c-0.1,0.2-0.1,0.5-0.1,0.8
		l0,0l0,0c0,0.2-0.1,0.6-0.1,1v0l0,0c0,0.1,0,0.6,0.1,1l0,0l0,0c0.1,0.2,0.2,0.6,0.4,1l0,0l0,0c0.2,0.4,0.6,1,1.1,1.5l0,0l0,0l0,0
		l0,0l0,0c0.6,0.5,1.2,0.7,1.7,0.9c0.5,0.1,0.9,0.2,1.2,0.2v0l0,0l0,0c0.4,0,0.7-0.1,1-0.1c0.3-0.1,0.5-0.1,0.5-0.2l0,0l0,0
		c0.5-0.2,0.9-0.4,1.2-0.6l0,0l0,0c0.6-0.4,1.2-0.8,2-1.3l0,0l0,0c2.5-1.8,6.1-4.7,9.2-7.2c1-0.8,1.9-1.6,2.7-2.2
		c1.5,1.2,3.4,2.6,5.3,4.1c2.1,1.6,4.2,3.2,5.9,4.4l0,0c0.9,0.6,1.6,1.1,2.2,1.6l0,0l0,0c0.3,0.2,0.6,0.4,1,0.6l0,0l0,0
		c0.2,0.1,0.4,0.2,0.7,0.3l0,0l0,0c0.1,0,0.3,0.1,0.6,0.2l0,0l0,0c0.1,0,0.2,0.1,0.5,0.1c0.2,0,0.5,0.1,0.7,0.1l0,0l0,0
		c0.4,0,1.3-0.1,2.2-0.6l0,0l0,0l0,0l0,0l0,0c0.8-0.5,1.3-1.1,1.6-1.6l0,0l0,0c0.2-0.3,0.3-0.6,0.4-0.9c0.1-0.3,0.1-0.5,0.1-0.6l0,0
		l0,0c0-0.3,0.1-0.6,0.1-0.7v0v0l0,0C59.4,61.6,59.3,61.1,59.3,60.9z M54.9,62.9l-0.1,0l-0.1,0l-0.1,0c-0.1,0-0.1-0.1-0.3-0.1
		c-0.2-0.1-0.4-0.2-0.7-0.4c-0.5-0.4-1.3-0.8-2.1-1.4l0,0c-1.6-1.2-3.7-2.8-5.8-4.3c-2.5-1.9-5-3.9-6.5-5.1l-1.3-1l-1.2,1
		c-1,0.8-2.4,2-3.9,3.2c-3,2.5-6.6,5.3-9,7l0,0c-0.7,0.5-1.2,0.9-1.7,1.1c-0.3,0.2-0.4,0.2-0.6,0.3c-0.1,0-0.1,0-0.2,0
		c0,0-0.1,0-0.2,0l-0.2,0l0,0l-0.2-0.1l0,0c-0.1-0.1-0.1-0.1-0.1-0.2l-0.1-0.1c0-0.1,0-0.1,0-0.2c0-0.2,0-0.2,0-0.4
		c0-0.2,0.1-0.3,0.1-0.5c0.1-0.4,0.2-0.9,0.4-1.4c0.3-1.1,0.7-2.6,1.2-4.1c1-3.1,2.1-6.8,3-9.7c0.3-1.1,0.6-2,0.9-2.8l0.4-1.4
		l-1.1-0.9c-2.5-1.9-7.8-5.8-11.5-8.6c-1.7-1.3-3-2.3-3.6-2.8c-0.1-0.1-0.2-0.1-0.2-0.2L10,29.8l0,0l0,0l0,0l0-0.1
		c0-0.1,0-0.1,0-0.1c0,0,0,0,0-0.2l0-0.1l0-0.1c0-0.1,0.1-0.1,0.1-0.2L10,29c0.1,0,0,0,0.1-0.1l0.1,0l0,0l0,0l0.1,0l0,0l0.2,0
		c0.1,0,0.3,0,0.5,0l0,0c0.4,0,1,0,1.7,0c1.3,0,2.9,0,4.8,0c4.3,0,9.4,0,12,0l1.5,0l6.9-22.4l0-0.1c0,0.1,0.1,0.4,0.2,0.7
		c0.4,1.3,1.1,3.6,1.8,6c0.7,2.3,1.3,4.6,1.7,5.8c1,3.3,2.1,6.5,2.7,8.4l0.5,1.4l1.5,0c3.3-0.1,10.3-0.2,14.9-0.3h0
		c0.7,0,1.4,0,1.9,0c0.2,0,0.4,0,0.6,0l0,0c0.7,0,1.2,0,1.5,0c0.1,0,0.1,0,0.2,0l0.1,0l0,0l0.1,0c0,0,0.1,0,0.1,0l0,0
		c0,0,0.1,0,0.1,0.1c0,0,0.1,0.1,0.1,0.2l0,0l0,0c0,0.1,0,0.1,0,0.2l0,0.1c0,0,0,0,0,0l-0.1,0.1l-0.2,0.2c-0.1,0.1-0.3,0.3-0.5,0.4
		c-0.5,0.4-1.1,0.9-1.9,1.5c-1.6,1.2-3.7,2.8-5.8,4.5c-2.7,2.1-5.3,4.1-6.9,5.3L49,42.1l0.5,1.4c0.4,1.3,1.1,3.1,1.8,5.2
		c1.3,3.8,2.8,8.3,3.6,11.1l0,0c0.2,0.8,0.4,1.4,0.5,1.9c0.1,0.3,0.1,0.4,0.1,0.6l0,0.1c0,0.1,0,0.1,0,0.1c0,0,0,0.1-0.1,0.1
		c0,0.1-0.1,0.1-0.2,0.2C55,62.9,55,62.9,54.9,62.9z"/>
	<rect x="50.7" y="12.8" transform="matrix(0.6402 -0.7682 0.7682 0.6402 9.7183 48.3868)" class="st6" width="11.7" height="2"/>
	
		<rect x="32.9" y="66.7" transform="matrix(2.032485e-02 -0.9998 0.9998 2.032485e-02 -30.5676 104.2899)" class="st6" width="10.2" height="2"/>
	<rect x="19.4" y="8.8" transform="matrix(0.7682 -0.6402 0.6402 0.7682 -4.6722 16.4271)" class="st6" width="2" height="11.7"/>
	<rect x="63.9" y="42" transform="matrix(0.3387 -0.9409 0.9409 0.3387 -1.7764 92.5257)" class="st6" width="2" height="11"/>
	<rect x="4" y="48.1" transform="matrix(0.9472 -0.3207 0.3207 0.9472 -15.2391 5.6171)" class="st6" width="10.9" height="2"/>
</g>
</svg>
