<svg id="Layer_1" data-name="Layer 1" xmlns="http://www.w3.org/2000/svg" xmlns:xlink="http://www.w3.org/1999/xlink" viewBox="0 0 392.8 198.7"><defs><linearGradient id="linear-gradient" x1="-1.13" y1="99.46" x2="392.99" y2="99.46" gradientUnits="userSpaceOnUse"><stop offset="0.01" stop-color="#2151bf"/><stop offset="1" stop-color="#0d88d4"/></linearGradient></defs><title>Steps_CPDS</title><rect x="-1.1" width="394.1" height="198.87" fill="url(#linear-gradient)"/><rect x="136" y="111.8" width="57.7" height="15.75" rx="2.5" ry="2.5" fill="#2eaaef"/><rect x="253.2" y="33.7" width="103.9" height="136.17" rx="12" ry="12" fill="#de0075"/><path d="M70.1,97.7V92.4H56.2V87.9c2.3-4.3,6.2-10.5,11.6-18.6h7.1V88.1h3.9v4.3H74.9v5.3Zm-9.2-9.8v.3h9.3V73.4h-.3C66.8,78,63.8,82.8,60.9,87.9Z" fill="#fff"/><path d="M153.5,77.9a8.3,8.3,0,0,1,2.7-6.5,10.4,10.4,0,0,1,7.2-2.5,9.9,9.9,0,0,1,6.9,2.3A7.2,7.2,0,0,1,173,77a8.8,8.8,0,0,1-1.4,4.5,30.5,30.5,0,0,1-5,5.8l-5.9,6v.3h12.7v4.3H153.8V94.4l9.4-9.7a37,37,0,0,0,3.9-4.4,5.8,5.8,0,0,0,.9-3,4.2,4.2,0,0,0-1.3-3.1,5.1,5.1,0,0,0-3.5-1.2,4.9,4.9,0,0,0-3.6,1.4,4.5,4.5,0,0,0-1.4,3.5h-4.7Z" fill="#fff"/><path d="M117.1,86.5v8.6h-2.9V86.5h-8.5V83.6h8.5V75.1h2.9v8.5h8.5v2.9Z" fill="#fff"/><path d="M228.8,83.3H210.5V80.4h18.3Zm0,7.6H210.5V88h18.3Z" fill="#fff"/><path d="M44.1,42.6h3.3a2.4,2.4,0,0,1,2,.8,2.8,2.8,0,0,1-2,4.8H45.2v3.1H44.1Zm1.1,1v3.6h1.9a1.6,1.6,0,0,0,1.4-.5,1.5,1.5,0,0,0,.6-1.3,2,2,0,0,0-.5-1.4,2.4,2.4,0,0,0-1.5-.4Z" fill="#fff"/><path d="M53.4,51.4a2.5,2.5,0,0,1-1.6-.5,1.8,1.8,0,0,1-.6-1.4,1.7,1.7,0,0,1,.6-1.4,3.8,3.8,0,0,1,1.8-.6h1.8v-.6a1.2,1.2,0,0,0-.3-.9,2,2,0,0,0-1.1-.3l-1,.2c-.3.1-.4.3-.5.6h-1a1.7,1.7,0,0,1,.8-1.3,2.9,2.9,0,0,1,1.7-.4,3,3,0,0,1,1.8.5,2,2,0,0,1,.7,1.6v4.5h-1v-1h-.1a2,2,0,0,1-.8.8A2.7,2.7,0,0,1,53.4,51.4Zm.2-.9a1.9,1.9,0,0,0,1.3-.5,1.3,1.3,0,0,0,.5-1.1v-.6H53.7a1.6,1.6,0,0,0-1.1.3.9.9,0,0,0-.3.7,1,1,0,0,0,.3.8A1.7,1.7,0,0,0,53.6,50.5Z" fill="#fff"/><path d="M58.2,46.6a1.9,1.9,0,0,1,.7-1.4,3.5,3.5,0,0,1,1.8-.5,3.1,3.1,0,0,1,1.7.4,1.9,1.9,0,0,1,.7,1.3h-1c-.1-.2-.2-.5-.5-.6s-.5-.2-.9-.2a1.5,1.5,0,0,0-1,.2.8.8,0,0,0-.4.7.9.9,0,0,0,.3.6l.8.3,1,.3a2.6,2.6,0,0,1,1.4.6,1.5,1.5,0,0,1,.4,1.1,1.8,1.8,0,0,1-.7,1.5,3.6,3.6,0,0,1-1.9.5,3.5,3.5,0,0,1-1.8-.5,1.6,1.6,0,0,1-.7-1.3h1a1.3,1.3,0,0,0,.6.7,2.1,2.1,0,0,0,2-.1.8.8,0,0,0,.5-.7c0-.4-.4-.7-1.1-.9L60,48.3a2.3,2.3,0,0,1-1.3-.6A1.6,1.6,0,0,1,58.2,46.6Z" fill="#fff"/><path d="M64.6,46.6a1.6,1.6,0,0,1,.7-1.4,3.1,3.1,0,0,1,1.7-.5,2.9,2.9,0,0,1,1.7.4,2.6,2.6,0,0,1,.8,1.3H68.4a.8.8,0,0,0-.4-.6,2.6,2.6,0,0,0-2,0,1,1,0,0,0-.4.7.9.9,0,0,0,.3.6l.9.3,1,.3a2.3,2.3,0,0,1,1.3.6,1.6,1.6,0,0,1,.5,1.1,1.9,1.9,0,0,1-.8,1.5,3.5,3.5,0,0,1-3.6,0,1.7,1.7,0,0,1-.8-1.3h1.1a1.8,1.8,0,0,0,.5.7,1.6,1.6,0,0,0,1,.2,1.8,1.8,0,0,0,1.1-.3.7.7,0,0,0,.4-.7c0-.4-.3-.7-1-.9l-1.1-.3a2.6,2.6,0,0,1-1.4-.6A1.5,1.5,0,0,1,64.6,46.6Z" fill="#fff"/><path d="M76.4,51.4a2,2,0,0,1-1.5-.6,1.9,1.9,0,0,1,0-2.8,2.9,2.9,0,0,1,1.9-.6h1.6v-.6a1.4,1.4,0,0,0-.2-.6l-.9-.2a1.2,1.2,0,0,0-1.2.6H74.5a2,2,0,0,1,.9-1.5,3.9,3.9,0,0,1,2-.5,3.3,3.3,0,0,1,2.1.6,2.2,2.2,0,0,1,.7,1.6v4.6H78.5v-.9h-.1a1.8,1.8,0,0,1-.8.7A2.4,2.4,0,0,1,76.4,51.4Zm.6-1.3a1.2,1.2,0,0,0,1-.4.9.9,0,0,0,.4-.8v-.5H77.1c-.8,0-1.1.3-1.1.8a.9.9,0,0,0,.3.6Z" fill="#fff"/><path d="M81.9,51.3V44.6h1.7v1.1h.1a1.8,1.8,0,0,1,.8-.9,2.1,2.1,0,0,1,1.2-.3,2.4,2.4,0,0,1,1.7.6A2.9,2.9,0,0,1,88,47v4.3H86.2V47.4c0-.9-.4-1.4-1.2-1.4a1.2,1.2,0,0,0-1,.4,1.8,1.8,0,0,0-.3,1.1v3.8Z" fill="#fff"/><path d="M90.3,53.7h-.7V52.3H90a1.5,1.5,0,0,0,.8-.2,1,1,0,0,0,.4-.5v-.3l-2.4-6.7h2l1.4,5.1h.1l1.4-5.1h1.8l-2.3,6.8a3.3,3.3,0,0,1-1.1,1.8A3.3,3.3,0,0,1,90.3,53.7Z" fill="#fff"/><path d="M139.3,42.6h3.3a2.4,2.4,0,0,1,2,.8,2.8,2.8,0,0,1-2,4.8h-2.2v3.1h-1.1Zm1.1,1v3.6h1.9a1.8,1.8,0,0,0,1.5-.5,1.7,1.7,0,0,0,.5-1.3,2,2,0,0,0-.5-1.4,2.2,2.2,0,0,0-1.5-.4Z" fill="#fff"/><path d="M148.6,51.4a3,3,0,0,1-1.6-.5,1.8,1.8,0,0,1-.6-1.4,1.7,1.7,0,0,1,.6-1.4,3.8,3.8,0,0,1,1.8-.6h1.9v-.6a1.3,1.3,0,0,0-.4-.9,1.8,1.8,0,0,0-1.1-.3l-1,.2a1,1,0,0,0-.5.6h-1a1.7,1.7,0,0,1,.8-1.3,3.1,3.1,0,0,1,1.7-.4,3.6,3.6,0,0,1,1.9.5,2.3,2.3,0,0,1,.6,1.6v4.5h-1v-1h-.1a2,2,0,0,1-.8.8A2.4,2.4,0,0,1,148.6,51.4Zm.2-.9a1.9,1.9,0,0,0,1.3-.5,1.4,1.4,0,0,0,.6-1.1v-.6h-1.8a1.8,1.8,0,0,0-1.1.3.9.9,0,0,0-.3.7.8.8,0,0,0,.4.8A1.2,1.2,0,0,0,148.8,50.5Z" fill="#fff"/><path d="M153.5,46.6a1.6,1.6,0,0,1,.7-1.4,2.9,2.9,0,0,1,1.7-.5,3.1,3.1,0,0,1,1.7.4,2.6,2.6,0,0,1,.8,1.3h-1.1a.7.7,0,0,0-.5-.6c-.2-.2-.5-.2-.9-.2a1.6,1.6,0,0,0-1,.2,1,1,0,0,0-.4.7.9.9,0,0,0,.3.6l.8.3,1,.3a2.3,2.3,0,0,1,1.4.6,1.6,1.6,0,0,1,.5,1.1,1.9,1.9,0,0,1-.8,1.5,3.5,3.5,0,0,1-1.8.5,3,3,0,0,1-1.8-.5,1.7,1.7,0,0,1-.8-1.3h1.1a1.2,1.2,0,0,0,.5.7,1.6,1.6,0,0,0,1,.2,2,2,0,0,0,1.1-.3.7.7,0,0,0,.4-.7c0-.4-.3-.7-1-.9l-1.2-.3a2.3,2.3,0,0,1-1.3-.6A1.5,1.5,0,0,1,153.5,46.6Z" fill="#fff"/><path d="M159.8,46.6a1.9,1.9,0,0,1,.7-1.4,3.5,3.5,0,0,1,1.8-.5,2.7,2.7,0,0,1,1.6.4,2,2,0,0,1,.8,1.3h-1a1.5,1.5,0,0,0-.5-.6,1.6,1.6,0,0,0-1-.2,1.3,1.3,0,0,0-.9.2.8.8,0,0,0-.4.7,1.4,1.4,0,0,0,.2.6l.9.3,1,.3a2.6,2.6,0,0,1,1.4.6,1.5,1.5,0,0,1,.4,1.1,1.8,1.8,0,0,1-.7,1.5,3.6,3.6,0,0,1-1.9.5,3.5,3.5,0,0,1-1.8-.5,2,2,0,0,1-.8-1.3h1.1a1.8,1.8,0,0,0,.5.7,1.6,1.6,0,0,0,1,.2,1.8,1.8,0,0,0,1.1-.3.7.7,0,0,0,.4-.7c0-.4-.3-.7-1-.9l-1.1-.3a2.6,2.6,0,0,1-1.4-.6A2.1,2.1,0,0,1,159.8,46.6Z" fill="#fff"/><path d="M171.7,51.4a2.1,2.1,0,0,1-1.6-.6,1.9,1.9,0,0,1,0-2.8,3,3,0,0,1,2-.6h1.6v-.6a.9.9,0,0,0-.3-.6l-.9-.2a1.2,1.2,0,0,0-1.2.6h-1.6a2.4,2.4,0,0,1,.9-1.5,3.9,3.9,0,0,1,2-.5,3.3,3.3,0,0,1,2.1.6,1.9,1.9,0,0,1,.7,1.6v4.6h-1.7v-.9h-.1a1.4,1.4,0,0,1-.8.7A2,2,0,0,1,171.7,51.4Zm.5-1.3a1.5,1.5,0,0,0,1.1-.4,1.2,1.2,0,0,0,.4-.8v-.5h-1.4c-.7,0-1.1.3-1.1.8a.9.9,0,0,0,.3.6Z" fill="#fff"/><path d="M177.1,51.3V44.6h1.7v1.1h.1a1.8,1.8,0,0,1,.8-.9,2.1,2.1,0,0,1,1.2-.3,2.4,2.4,0,0,1,1.7.6,2.9,2.9,0,0,1,.6,1.9v4.3h-1.8V47.4c0-.9-.4-1.4-1.2-1.4a1.3,1.3,0,0,0-1,.4,1.8,1.8,0,0,0-.3,1.1v3.8Z" fill="#fff"/><path d="M185.5,53.7h-.6V52.3h.4l.7-.2a.7.7,0,0,0,.4-.5v-.3l-2.3-6.7h1.9l1.4,5.1h.1l1.4-5.1h1.9l-2.3,6.8a5,5,0,0,1-1.1,1.8A3.7,3.7,0,0,1,185.5,53.7Z" fill="#fff"/><path d="M315.9,155.7l-3-10.1.5-.3a1.6,1.6,0,0,0,.6-1.6,4.2,4.2,0,0,1,1-3.2,2,2,0,0,0,.6-1.1,2.1,2.1,0,0,0-.7-1.8,3.1,3.1,0,0,1-.9-2.6v-.8a2,2,0,0,0-1.2-1.6l-1.4-.4c-.8-.2-1.2-.9-1.6-1.5a2.8,2.8,0,0,0-1.4-1,3.4,3.4,0,0,0-2,.3,4.1,4.1,0,0,1-2.7-.2,2,2,0,0,0-2.1.3,4.3,4.3,0,0,0-.9,1,3.1,3.1,0,0,1-1.9,1.3c-1.4.3-2.2,1-2,2.6a3.3,3.3,0,0,1-.8,2.5l-.5.7a2.1,2.1,0,0,0,.4,2.6,2.8,2.8,0,0,1,.9,1.7v1.3a2,2,0,0,0,1.4,2h0l-3,9.9a1.1,1.1,0,0,0,.3,1,.9.9,0,0,0,1,.1l3.2-1.4,2,2.8a1.2,1.2,0,0,0,.8.4h.2a1,1,0,0,0,.7-.7l2.2-7.8,2.1,7.8a1,1,0,0,0,.8.7h.1a1.2,1.2,0,0,0,.8-.4l2-2.8,3.2,1.4a.9.9,0,0,0,1-.1A.9.9,0,0,0,315.9,155.7Zm-13.8-.2-1.3-1.8a.8.8,0,0,0-1.1-.3l-2.1.9,2.4-7.9.5.5a7.6,7.6,0,0,0,.8,1.1,1.6,1.6,0,0,0,1.6.7l1.2-.3Zm3.3-8.8a5.8,5.8,0,0,1-1.9-.2h-.1a7.5,7.5,0,0,1-5.6-7.5,7.4,7.4,0,0,1,7.1-7.3,7.5,7.5,0,1,1,.5,15Zm6.1,6.7a1,1,0,0,0-1.2.3l-1.3,1.8-1.9-6.9h.2a2.2,2.2,0,0,0,2.3-.8,12.5,12.5,0,0,1,.9-1.2l.6-.4,2.4,8Z" fill="#fff"/><ellipse cx="305.3" cy="139.2" rx="5.4" ry="5.3" fill="#fff"/><path d="M38.1,132h2.8a3.8,3.8,0,0,1,2.8,1.1,5,5,0,0,1,1,3.1,4.8,4.8,0,0,1-1,3.1,3.8,3.8,0,0,1-2.8,1.1H38.1Zm1,1v6.5h1.7a2.6,2.6,0,0,0,2.1-.9,3.3,3.3,0,0,0,.8-2.4,3.6,3.6,0,0,0-.8-2.4,2.9,2.9,0,0,0-2.1-.8Z" fill="#fff"/><path d="M48,140.5a2,2,0,0,1-1.5-.5,1.5,1.5,0,0,1-.5-1.3,1.7,1.7,0,0,1,.5-1.4,3.8,3.8,0,0,1,1.7-.5h1.7v-.6a1.2,1.2,0,0,0-.3-.9,1.8,1.8,0,0,0-1.1-.3l-.9.2c-.2.2-.4.4-.4.6h-1a1.9,1.9,0,0,1,.7-1.2,3.1,3.1,0,0,1,1.7-.5,2.4,2.4,0,0,1,1.7.6,2,2,0,0,1,.6,1.5v4.3H50v-.9h-.1a3,3,0,0,1-.8.8Zm.2-.8a1.7,1.7,0,0,0,1.2-.5,1.6,1.6,0,0,0,.5-1.1v-.6H48.3a1.3,1.3,0,0,0-1,.3.9.9,0,0,0-.3.7,1,1,0,0,0,.3.8A1.2,1.2,0,0,0,48.2,139.7Z" fill="#fff"/><path d="M53.1,132.5H54v1.7h1.4v.8H54v3.5c0,.4.1.7.3.8a.6.6,0,0,0,.6.3h.5v.8h-.6a2,2,0,0,1-1.3-.4,1.7,1.7,0,0,1-.4-1.3V135h-1v-.8h1Z" fill="#fff"/><path d="M58.5,140.5a1.7,1.7,0,0,1-1.4-.5,1.6,1.6,0,0,1-.6-1.3,1.8,1.8,0,0,1,.6-1.4,3,3,0,0,1,1.6-.5h1.8v-.6a1.3,1.3,0,0,0-.4-.9,1.5,1.5,0,0,0-1-.3l-.9.2a1.3,1.3,0,0,0-.5.6h-1a1.6,1.6,0,0,1,.8-1.2,2.8,2.8,0,0,1,1.6-.5,2.4,2.4,0,0,1,1.7.6,2,2,0,0,1,.6,1.5v4.3h-.9v-.9h-.1a2,2,0,0,1-.8.8Zm.2-.8a2.1,2.1,0,0,0,1.3-.5,1.6,1.6,0,0,0,.5-1.1v-.6H58.8a1.5,1.5,0,0,0-1,.3.9.9,0,0,0-.3.7,1,1,0,0,0,.3.8Z" fill="#fff"/><path d="M66.2,138.2h1a1.6,1.6,0,0,0,.7,1.1,2.6,2.6,0,0,0,1.4.4,2.9,2.9,0,0,0,1.4-.4,1.6,1.6,0,0,0,.5-1.1,1.2,1.2,0,0,0-.4-.9,3.3,3.3,0,0,0-1.2-.5l-1.1-.3a4.8,4.8,0,0,1-1.6-.8,2.5,2.5,0,0,1-.5-1.5,2.1,2.1,0,0,1,.8-1.7,3.3,3.3,0,0,1,2.1-.7,3.5,3.5,0,0,1,2,.7,2.1,2.1,0,0,1,.8,1.7h-1a2,2,0,0,0-.6-1.1,2.1,2.1,0,0,0-1.2-.3,1.7,1.7,0,0,0-1.3.4,1,1,0,0,0-.5,1,1.1,1.1,0,0,0,.3.8,3.3,3.3,0,0,0,1.2.5l.9.3a5.1,5.1,0,0,1,1.8.8,2.5,2.5,0,0,1-.3,3.3,3.1,3.1,0,0,1-2.2.7,3.3,3.3,0,0,1-2.1-.6A2.1,2.1,0,0,1,66.2,138.2Z" fill="#fff"/><path d="M78.8,136.1h-1a.9.9,0,0,0-.5-.8,1.3,1.3,0,0,0-1-.4,1.6,1.6,0,0,0-1.3.7,3.1,3.1,0,0,0,0,3.4,1.5,1.5,0,0,0,1.3.6,1.7,1.7,0,0,0,1-.3c.3-.1.4-.4.5-.8h1A2.2,2.2,0,0,1,78,140a2.9,2.9,0,0,1-1.7.5,2.6,2.6,0,0,1-2.1-.9,3.2,3.2,0,0,1-.7-2.3,3.6,3.6,0,0,1,.7-2.4,2.6,2.6,0,0,1,2.1-.9,2.4,2.4,0,0,1,1.7.6A2.2,2.2,0,0,1,78.8,136.1Z" fill="#fff"/><path d="M81.2,132.7l-.5.2-.4-.2a.6.6,0,0,1-.2-.5c0-.2,0-.4.2-.5l.4-.2.5.2c.2.1.2.3.2.5A.6.6,0,0,1,81.2,132.7Zm-.9,7.7v-6.2h.9v6.2Z" fill="#fff"/><path d="M87.1,138.8h1a2.3,2.3,0,0,1-2.6,1.7,2.8,2.8,0,0,1-2-.8,4.5,4.5,0,0,1,0-4.8,2.5,2.5,0,0,1,2-.9,2.2,2.2,0,0,1,1.9.9,3.2,3.2,0,0,1,.7,2.3v.4H83.8a2.5,2.5,0,0,0,.5,1.5,1.3,1.3,0,0,0,1.2.5A1.5,1.5,0,0,0,87.1,138.8Zm-1.6-3.9a1.7,1.7,0,0,0-1.2.5,2.2,2.2,0,0,0-.5,1.4h3.3a2.1,2.1,0,0,0-.4-1.4A1.7,1.7,0,0,0,85.5,134.9Z" fill="#fff"/><path d="M89.7,140.4v-6.2h.9v.9h.1a1.8,1.8,0,0,1,1.8-1.1,2.1,2.1,0,0,1,1.6.6,3,3,0,0,1,.5,1.8v4h-1v-3.8a1.7,1.7,0,0,0-.3-1.2,1.5,1.5,0,0,0-2.2,0,1.9,1.9,0,0,0-.5,1.3v3.7Z" fill="#fff"/><path d="M101.4,136.1h-1a1.1,1.1,0,0,0-.5-.8,1.3,1.3,0,0,0-1-.4,1.6,1.6,0,0,0-1.3.7,3.1,3.1,0,0,0,0,3.4,1.5,1.5,0,0,0,1.3.6,1.7,1.7,0,0,0,1-.3,1.2,1.2,0,0,0,.5-.8h1a2.8,2.8,0,0,1-.8,1.5,3.1,3.1,0,0,1-1.7.5,2.6,2.6,0,0,1-2.1-.9,3.2,3.2,0,0,1-.7-2.3,3.6,3.6,0,0,1,.7-2.4,2.6,2.6,0,0,1,2.1-.9,2.5,2.5,0,0,1,1.7.6A2.8,2.8,0,0,1,101.4,136.1Z" fill="#fff"/><path d="M106.8,138.8h1a2,2,0,0,1-.9,1.3,2.7,2.7,0,0,1-1.6.4,2.5,2.5,0,0,1-2-.8,4,4,0,0,1,0-4.8,2.4,2.4,0,0,1,2-.9,2.3,2.3,0,0,1,1.9.9,3.2,3.2,0,0,1,.7,2.3v.4h-4.4a3.3,3.3,0,0,0,.5,1.5,1.5,1.5,0,0,0,1.3.5C106.1,139.6,106.6,139.4,106.8,138.8Zm-1.6-3.9a1.6,1.6,0,0,0-1.1.5,2.2,2.2,0,0,0-.6,1.4h3.4a2.2,2.2,0,0,0-.5-1.4A1.7,1.7,0,0,0,105.2,134.9Z" fill="#fff"/><path d="M41.3,154.4a3.2,3.2,0,0,1-2.6-1.2,5.3,5.3,0,0,1-.9-3.2,4.9,4.9,0,0,1,.9-3.2,3.6,3.6,0,0,1,4.8-.5,3.1,3.1,0,0,1,1.1,2h-1a2.2,2.2,0,0,0-.8-1.3,2.5,2.5,0,0,0-1.5-.5,2,2,0,0,0-1.8,1,3.7,3.7,0,0,0-.7,2.5,3.9,3.9,0,0,0,.7,2.5,2.1,2.1,0,0,0,1.8.9,3.3,3.3,0,0,0,1.5-.4,2,2,0,0,0,.8-1.2h1a2.9,2.9,0,0,1-1.1,1.9A3.8,3.8,0,0,1,41.3,154.4Z" fill="#fff"/><path d="M50.2,152.5h1a2.5,2.5,0,0,1-.9,1.3,3.1,3.1,0,0,1-1.7.5,2.5,2.5,0,0,1-2-.9,3.6,3.6,0,0,1-.7-2.4,3.2,3.2,0,0,1,.7-2.3,2.5,2.5,0,0,1,2-.9,2.8,2.8,0,0,1,2,.8,4.2,4.2,0,0,1,.7,2.3v.4H46.9a2,2,0,0,0,.5,1.4,1.4,1.4,0,0,0,1.2.6A1.6,1.6,0,0,0,50.2,152.5Zm-1.6-3.8a1.3,1.3,0,0,0-1.2.5,1.7,1.7,0,0,0-.5,1.3h3.3a1.7,1.7,0,0,0-.4-1.3A1.3,1.3,0,0,0,48.6,148.7Z" fill="#fff"/><path d="M52.8,154.2v-6.3h.9v.9h.1a1.3,1.3,0,0,1,.6-.7,2,2,0,0,1,1.1-.3H56v1h-.7a1.6,1.6,0,0,0-1.1.5,1.4,1.4,0,0,0-.5,1.1v3.9Z" fill="#fff"/><path d="M57.9,146.3h1v1.6h1.3v.8H58.9v3.6a1.1,1.1,0,0,0,.2.8l.7.2h.4v.8h-.5a1.8,1.8,0,0,1-1.4-.4c-.3-.2-.4-.7-.4-1.3v-3.8h-1v-.8h1Z" fill="#fff"/><path d="M62.7,146.4l-.5.2-.5-.2a.8.8,0,0,1-.2-.5c0-.2.1-.3.2-.5l.5-.2.5.2c.1.2.2.3.2.5A.8.8,0,0,1,62.7,146.4Zm-1,7.8v-6.3h1v6.3Z" fill="#fff"/><path d="M64.9,154.2v-5.5h-1v-.8h1v-.6a1.8,1.8,0,0,1,.5-1.4,1.7,1.7,0,0,1,1.3-.4h.6v.9h-.5c-.6,0-.9.3-.9,1v.6h1.4v.8H65.9v5.5Z" fill="#fff"/><path d="M69.7,146.4l-.5.2-.5-.2a.8.8,0,0,1-.2-.5c0-.2.1-.3.2-.5l.5-.2.5.2c.1.2.2.3.2.5A.8.8,0,0,1,69.7,146.4Zm-1,7.8v-6.3h1v6.3Z" fill="#fff"/><path d="M76.5,149.8h-.9a1.6,1.6,0,0,0-.6-.8,1.5,1.5,0,0,0-1-.3,1.6,1.6,0,0,0-1.3.6,3.1,3.1,0,0,0,0,3.4,1.7,1.7,0,0,0,1.3.7,1.7,1.7,0,0,0,1-.3,1.6,1.6,0,0,0,.6-.8h.9a2,2,0,0,1-.8,1.4,2.4,2.4,0,0,1-1.7.6,2.4,2.4,0,0,1-2-.9,3.6,3.6,0,0,1-.8-2.4,3.2,3.2,0,0,1,.8-2.3,2.4,2.4,0,0,1,2-.9,2.4,2.4,0,0,1,1.7.6A1.8,1.8,0,0,1,76.5,149.8Z" fill="#fff"/><path d="M79.7,154.3a2.5,2.5,0,0,1-1.5-.5,1.8,1.8,0,0,1-.6-1.4,1.5,1.5,0,0,1,.6-1.3,3.4,3.4,0,0,1,1.6-.6h1.8v-.5a1.3,1.3,0,0,0-.4-.9,1.5,1.5,0,0,0-1-.3c-.4,0-.7,0-.9.2a.8.8,0,0,0-.5.5h-1a2,2,0,0,1,.8-1.2,2.7,2.7,0,0,1,1.6-.4,2.6,2.6,0,0,1,1.7.5,2.1,2.1,0,0,1,.6,1.6v4.3h-.9v-1h-.1a1.6,1.6,0,0,1-.8.8A1.7,1.7,0,0,1,79.7,154.3Zm.1-.9a2.1,2.1,0,0,0,1.3-.5,1.4,1.4,0,0,0,.5-1.1v-.6l-1.7.2-1,.2a1.1,1.1,0,0,0-.3.8.9.9,0,0,0,.3.7A1.6,1.6,0,0,0,79.8,153.4Z" fill="#fff"/><path d="M84.7,146.3h1v1.6H87v.8H85.7v3.6a1.9,1.9,0,0,0,.2.8l.7.2H87v.8h-.5a1.8,1.8,0,0,1-1.4-.4,2,2,0,0,1-.4-1.3v-3.8h-1v-.8h1Z" fill="#fff"/><path d="M89.5,146.4l-.5.2-.5-.2a.8.8,0,0,1-.2-.5c0-.2.1-.3.2-.5l.5-.2.5.2c.1.2.2.3.2.5A.8.8,0,0,1,89.5,146.4Zm-1,7.8v-6.3h1v6.3Z" fill="#fff"/><path d="M95.9,153.4a2.6,2.6,0,0,1-2.1.9,2.5,2.5,0,0,1-2-.9,4,4,0,0,1,0-4.8,2.8,2.8,0,0,1,2-.8,2.9,2.9,0,0,1,2.1.8,4.5,4.5,0,0,1,0,4.8Zm-3.4-.7a1.5,1.5,0,0,0,1.3.7,1.6,1.6,0,0,0,1.4-.7,2.7,2.7,0,0,0,.4-1.7,2.9,2.9,0,0,0-.4-1.7,1.8,1.8,0,0,0-1.4-.6,1.6,1.6,0,0,0-1.3.6A2.9,2.9,0,0,0,92,151,2.6,2.6,0,0,0,92.5,152.7Z" fill="#fff"/><path d="M98.1,154.2v-6.3h1v1h.1a1.7,1.7,0,0,1,1.8-1.1,1.8,1.8,0,0,1,1.5.6,2.4,2.4,0,0,1,.6,1.7v4.1h-1v-3.9a2.1,2.1,0,0,0-.3-1.2,1.4,1.4,0,0,0-1.1-.4,1.3,1.3,0,0,0-1.2.5,2.1,2.1,0,0,0-.4,1.2v3.8Z" fill="#fff"/><path d="M42,166.3h.9a1.8,1.8,0,0,1-.9,1.2,2.8,2.8,0,0,1-1.6.5,2.4,2.4,0,0,1-2-.9,3.4,3.4,0,0,1-.8-2.3,3.6,3.6,0,0,1,.8-2.4,2.4,2.4,0,0,1,2-.9,2.3,2.3,0,0,1,1.9.9,3.2,3.2,0,0,1,.7,2.3v.3H38.6a2.5,2.5,0,0,0,.6,1.5,1.7,1.7,0,0,0,1.2.5A1.7,1.7,0,0,0,42,166.3Zm-1.6-3.9a1.7,1.7,0,0,0-1.2.5,2.6,2.6,0,0,0-.6,1.3H42a1.9,1.9,0,0,0-.5-1.3A1.6,1.6,0,0,0,40.4,162.4Z" fill="#fff"/><path d="M46.5,165.5h-.1l-1.5,2.4H43.8l2.1-3.1-2.1-3.2H45l1.4,2.4h.1l1.4-2.4H49l-2.1,3.1,2.1,3.2H47.9Z" fill="#fff"/><path d="M52,168a2.2,2.2,0,0,1-1.4-.5,1.7,1.7,0,0,1-.6-1.4,1.6,1.6,0,0,1,.6-1.3,2.5,2.5,0,0,1,1.6-.5H54v-.6a1.3,1.3,0,0,0-.4-.9,1.5,1.5,0,0,0-1-.3l-.9.2c-.3.1-.4.3-.5.6h-1A2,2,0,0,1,51,162a2.8,2.8,0,0,1,1.6-.5,2.2,2.2,0,0,1,1.7.6,1.8,1.8,0,0,1,.6,1.5v4.3H54V167h-.1a1.4,1.4,0,0,1-.8.7A2,2,0,0,1,52,168Zm.2-.9a2,2,0,0,0,1.3-.4,1.6,1.6,0,0,0,.5-1.1V165H52.3a1.5,1.5,0,0,0-1,.3.8.8,0,0,0-.3.7,1.1,1.1,0,0,0,.3.8Z" fill="#fff"/><path d="M56.7,167.9v-6.3h.9v1h.1a2.7,2.7,0,0,1,.7-.8,1.7,1.7,0,0,1,1-.3,1.5,1.5,0,0,1,1,.3,2.7,2.7,0,0,1,.7.8h.1a1.8,1.8,0,0,1,.7-.8,2.3,2.3,0,0,1,1.1-.3,2.3,2.3,0,0,1,1.5.5,2.5,2.5,0,0,1,.5,1.6v4.3H64v-4.1c0-.9-.4-1.4-1.3-1.4a1.8,1.8,0,0,0-1,.4,1.5,1.5,0,0,0-.4,1.1v4h-1v-4.3a1.6,1.6,0,0,0-.3-.9,1.2,1.2,0,0,0-.9-.3,1.4,1.4,0,0,0-1,.5,1.5,1.5,0,0,0-.4,1.1v3.9Z" fill="#fff"/><path d="M66.6,163.3a1.8,1.8,0,0,1,.6-1.3,3.1,3.1,0,0,1,1.7-.5,2.5,2.5,0,0,1,1.5.5,1.5,1.5,0,0,1,.7,1.2h-.9c-.1-.3-.2-.5-.5-.6s-.5-.2-.9-.2a1.5,1.5,0,0,0-.9.2.9.9,0,0,0-.3.7.8.8,0,0,0,.2.5l.8.4,1,.2a2.7,2.7,0,0,1,1.2.6,1.5,1.5,0,0,1,.4,1.1,1.8,1.8,0,0,1-.6,1.4,3.5,3.5,0,0,1-1.8.5,2.5,2.5,0,0,1-1.6-.5,1.6,1.6,0,0,1-.8-1.2h1a1,1,0,0,0,.5.6l.9.3a1.8,1.8,0,0,0,1.1-.3.9.9,0,0,0,.3-.7q0-.6-.9-.9l-1.1-.3a2.3,2.3,0,0,1-1.2-.6A1.4,1.4,0,0,1,66.6,163.3Z" fill="#fff"/><path d="M130.6,132h2.8a3.8,3.8,0,0,1,2.8,1.1,4.5,4.5,0,0,1,1,3.1,4.3,4.3,0,0,1-1,3.1,3.3,3.3,0,0,1-2.8,1.1h-2.8Zm1,1v6.5h1.7a2.6,2.6,0,0,0,2.1-.9,3.3,3.3,0,0,0,.8-2.4,3.6,3.6,0,0,0-.8-2.4,2.9,2.9,0,0,0-2.1-.8Z" fill="#fff"/><path d="M140.5,140.5a1.9,1.9,0,0,1-1.4-.5,1.6,1.6,0,0,1-.6-1.3,1.5,1.5,0,0,1,.6-1.3,2.6,2.6,0,0,1,1.6-.6h1.8v-.6a1.3,1.3,0,0,0-.4-.9,1.5,1.5,0,0,0-1-.3l-.9.2a1.3,1.3,0,0,0-.5.6h-1a2,2,0,0,1,.8-1.2,2.8,2.8,0,0,1,1.6-.5,2.2,2.2,0,0,1,1.7.6,2,2,0,0,1,.6,1.5v4.3h-.9v-.9h-.1a2,2,0,0,1-.8.8Zm.2-.8a2.1,2.1,0,0,0,1.3-.5,1.6,1.6,0,0,0,.5-1.1v-.6h-1.7c-.4.1-.8.1-1,.3a.9.9,0,0,0-.3.7,1,1,0,0,0,.3.8Z" fill="#fff"/><path d="M145.6,132.5h1v1.7h1.3v.8h-1.3v3.5a1.3,1.3,0,0,0,.2.8.8.8,0,0,0,.7.3h.4v.8h-.5a2.3,2.3,0,0,1-1.4-.4,2.2,2.2,0,0,1-.4-1.3V135h-1v-.8h1Z" fill="#fff"/><path d="M151.1,140.5a2,2,0,0,1-1.5-.5,1.6,1.6,0,0,1-.6-1.3,1.5,1.5,0,0,1,.6-1.3,2.6,2.6,0,0,1,1.7-.6H153v-.6a1.2,1.2,0,0,0-.3-.9,1.8,1.8,0,0,0-1.1-.3l-.9.2c-.2.2-.4.4-.4.6h-1a1.5,1.5,0,0,1,.7-1.2,3.1,3.1,0,0,1,1.7-.5,2.4,2.4,0,0,1,1.7.6,2,2,0,0,1,.6,1.5v4.3h-1v-.9h0a3,3,0,0,1-.8.8Zm.2-.8a1.7,1.7,0,0,0,1.2-.5,1.6,1.6,0,0,0,.5-1.1v-.6h-1.6c-.5.1-.8.1-1,.3a.8.8,0,0,0-.4.7,1,1,0,0,0,.4.8A1.2,1.2,0,0,0,151.3,139.7Z" fill="#fff"/><path d="M158.7,138.2h1.1a1.5,1.5,0,0,0,.6,1.1,3.3,3.3,0,0,0,1.5.4,2.5,2.5,0,0,0,1.3-.4,1.3,1.3,0,0,0,.5-1.1,1.6,1.6,0,0,0-.3-.9,3.2,3.2,0,0,0-1.3-.5l-1-.3a3.4,3.4,0,0,1-1.6-.8,2,2,0,0,1-.5-1.5,1.9,1.9,0,0,1,.8-1.7,3.2,3.2,0,0,1,4,0,2.6,2.6,0,0,1,.9,1.7h-1a2,2,0,0,0-.6-1.1,2.8,2.8,0,0,0-1.3-.3,1.8,1.8,0,0,0-1.3.4,1.2,1.2,0,0,0-.5,1,.9.9,0,0,0,.4.8,2.3,2.3,0,0,0,1.2.5l.8.3a3.8,3.8,0,0,1,1.8.8,2,2,0,0,1,.6,1.5,2.2,2.2,0,0,1-.8,1.8,3.2,3.2,0,0,1-2.2.7,3.8,3.8,0,0,1-2.2-.6A2.8,2.8,0,0,1,158.7,138.2Z" fill="#fff"/><path d="M171.4,136.1h-1a1.6,1.6,0,0,0-.5-.8,2.1,2.1,0,0,0-1.1-.4,1.7,1.7,0,0,0-1.3.7,3.1,3.1,0,0,0,0,3.4,1.8,1.8,0,0,0,1.3.6,1.5,1.5,0,0,0,1-.3,1,1,0,0,0,.6-.8h1a2.8,2.8,0,0,1-.8,1.5,3.5,3.5,0,0,1-1.8.5,2.5,2.5,0,0,1-2-.9,3.2,3.2,0,0,1-.8-2.3,3.6,3.6,0,0,1,.8-2.4,2.5,2.5,0,0,1,2-.9,2.8,2.8,0,0,1,1.8.6A2.8,2.8,0,0,1,171.4,136.1Z" fill="#fff"/><path d="M173.8,132.7l-.5.2-.5-.2c-.1-.2-.2-.3-.2-.5a.8.8,0,0,1,.2-.5l.5-.2.5.2a.8.8,0,0,1,.2.5C174,132.4,173.9,132.5,173.8,132.7Zm-1,7.7v-6.2h1v6.2Z" fill="#fff"/><path d="M179.6,138.8h1a2,2,0,0,1-.9,1.3,2.7,2.7,0,0,1-1.6.4,2.6,2.6,0,0,1-2-.8,4,4,0,0,1,0-4.8,2.4,2.4,0,0,1,2-.9,2.3,2.3,0,0,1,1.9.9,3.2,3.2,0,0,1,.7,2.3v.4h-4.4a3.3,3.3,0,0,0,.5,1.5,1.7,1.7,0,0,0,1.3.5C178.9,139.6,179.4,139.4,179.6,138.8Zm-1.6-3.9a1.6,1.6,0,0,0-1.1.5,2.2,2.2,0,0,0-.6,1.4h3.4a2.2,2.2,0,0,0-.5-1.4A1.7,1.7,0,0,0,178,134.9Z" fill="#fff"/><path d="M182.2,140.4v-6.2h.9v.9h.1A1.9,1.9,0,0,1,185,134a2.1,2.1,0,0,1,1.6.6,2.4,2.4,0,0,1,.6,1.8v4h-1v-3.8c0-.6-.1-1-.4-1.2a1.1,1.1,0,0,0-1-.5,1.7,1.7,0,0,0-1.2.5,1.8,1.8,0,0,0-.4,1.3v3.7Z" fill="#fff"/><path d="M193.9,136.1H193a1.2,1.2,0,0,0-.6-.8,1.5,1.5,0,0,0-1-.4,1.7,1.7,0,0,0-1.3.7,3.1,3.1,0,0,0,0,3.4,1.6,1.6,0,0,0,1.3.6,1.5,1.5,0,0,0,1-.3,1,1,0,0,0,.6-.8h.9a1.9,1.9,0,0,1-.8,1.5,2.9,2.9,0,0,1-1.7.5,2.5,2.5,0,0,1-2-.9,3.2,3.2,0,0,1-.8-2.3,3.6,3.6,0,0,1,.8-2.4,2.5,2.5,0,0,1,2-.9,2.4,2.4,0,0,1,1.7.6A1.9,1.9,0,0,1,193.9,136.1Z" fill="#fff"/><path d="M199.4,138.8h1a2.3,2.3,0,0,1-2.6,1.7,2.8,2.8,0,0,1-2-.8,4.5,4.5,0,0,1,0-4.8,2.5,2.5,0,0,1,2-.9,2.2,2.2,0,0,1,1.9.9,3.2,3.2,0,0,1,.7,2.3v.4h-4.3a2.5,2.5,0,0,0,.5,1.5,1.3,1.3,0,0,0,1.2.5A1.5,1.5,0,0,0,199.4,138.8Zm-1.6-3.9a1.7,1.7,0,0,0-1.2.5,2.2,2.2,0,0,0-.5,1.4h3.3a2.1,2.1,0,0,0-.4-1.4A1.7,1.7,0,0,0,197.8,134.9Z" fill="#fff"/><path d="M133.9,154.4a3.1,3.1,0,0,1-2.6-1.2,4.7,4.7,0,0,1-1-3.2,4.4,4.4,0,0,1,1-3.2,3.1,3.1,0,0,1,2.6-1.2,3.4,3.4,0,0,1,2.2.7,3.6,3.6,0,0,1,1.1,2h-1.1a2.2,2.2,0,0,0-.8-1.3,2.4,2.4,0,0,0-1.4-.5,2.2,2.2,0,0,0-1.9,1,4.4,4.4,0,0,0-.7,2.5,4.6,4.6,0,0,0,.7,2.5,2.3,2.3,0,0,0,1.9.9,2.9,2.9,0,0,0,1.4-.4,2,2,0,0,0,.8-1.2h1.1a3.3,3.3,0,0,1-1.1,1.9A3.8,3.8,0,0,1,133.9,154.4Z" fill="#fff"/><path d="M142.8,152.5h.9a1.8,1.8,0,0,1-.9,1.3,2.8,2.8,0,0,1-1.6.5,2.4,2.4,0,0,1-2-.9,3.6,3.6,0,0,1-.8-2.4,3.4,3.4,0,0,1,.8-2.3,2.4,2.4,0,0,1,2-.9,2.6,2.6,0,0,1,1.9.8,3.5,3.5,0,0,1,.7,2.3v.4h-4.4a2,2,0,0,0,.6,1.4,1.4,1.4,0,0,0,1.2.6A1.6,1.6,0,0,0,142.8,152.5Zm-1.6-3.8a1.3,1.3,0,0,0-1.2.5,2.6,2.6,0,0,0-.6,1.3h3.4a1.9,1.9,0,0,0-.5-1.3A1.3,1.3,0,0,0,141.2,148.7Z" fill="#fff"/><path d="M145.3,154.2v-6.3h.9v.9h.1a1.3,1.3,0,0,1,.6-.7,2.3,2.3,0,0,1,1.1-.3h.5v1h-.6a1.6,1.6,0,0,0-1.2.4,1.4,1.4,0,0,0-.4,1.1v3.9Z" fill="#fff"/><path d="M150.5,146.3h.9v1.6h1.4v.8h-1.4v3.6a1.9,1.9,0,0,0,.2.8l.7.2h.5v.8h-.6c-.6,0-1.1-.1-1.3-.4s-.4-.7-.4-1.3v-3.8h-1v-.8h1Z" fill="#fff"/><path d="M155.2,146.4l-.5.2-.4-.2c-.2-.1-.2-.3-.2-.5a.6.6,0,0,1,.2-.5l.4-.2.5.2c.1.2.2.3.2.5A.8.8,0,0,1,155.2,146.4Zm-.9,7.8v-6.3h.9v6.3Z" fill="#fff"/><path d="M157.5,154.2v-5.5h-1v-.8h1v-.6a1.5,1.5,0,0,1,1.8-1.8h.6v.9h-.6c-.6,0-.9.3-.9,1v.6h1.4v.8h-1.4v5.5Z" fill="#fff"/><path d="M162.2,146.4l-.5.2-.4-.2c-.2-.1-.2-.3-.2-.5a.6.6,0,0,1,.2-.5l.4-.2.5.2a.6.6,0,0,1,.2.5C162.4,146.1,162.4,146.3,162.2,146.4Zm-.9,7.8v-6.3h.9v6.3Z" fill="#fff"/><path d="M169.1,149.8h-1a2.2,2.2,0,0,0-.5-.8,1.8,1.8,0,0,0-1.1-.3,1.8,1.8,0,0,0-1.3.6,2.9,2.9,0,0,0-.4,1.7,2.3,2.3,0,0,0,.5,1.7,1.3,1.3,0,0,0,1.2.7,1.8,1.8,0,0,0,1.1-.3,2.2,2.2,0,0,0,.5-.8h1a2.5,2.5,0,0,1-.8,1.4,2.5,2.5,0,0,1-1.7.6,2.6,2.6,0,0,1-2.1-.9,3.6,3.6,0,0,1-.7-2.4,3.2,3.2,0,0,1,.7-2.3,2.5,2.5,0,0,1,2-.9,2.6,2.6,0,0,1,1.8.6A2.2,2.2,0,0,1,169.1,149.8Z" fill="#fff"/><path d="M172.2,154.3a2.5,2.5,0,0,1-1.5-.5,1.7,1.7,0,0,1-.5-1.4,1.4,1.4,0,0,1,.5-1.3,3.8,3.8,0,0,1,1.7-.6h1.7v-.5a1.2,1.2,0,0,0-.3-.9,1.8,1.8,0,0,0-1.1-.3,1.5,1.5,0,0,0-.9.2.7.7,0,0,0-.4.5h-1a1.9,1.9,0,0,1,.7-1.2,3.1,3.1,0,0,1,1.7-.4,2.9,2.9,0,0,1,1.7.5,2.1,2.1,0,0,1,.6,1.6v4.3h-.9v-1h-.1a2,2,0,0,1-.8.8A2,2,0,0,1,172.2,154.3Zm.2-.9a1.7,1.7,0,0,0,1.2-.5,1.2,1.2,0,0,0,.5-1.1v-.6l-1.6.2a1.3,1.3,0,0,0-1,.3.8.8,0,0,0-.3.7.9.9,0,0,0,.3.7A1.2,1.2,0,0,0,172.4,153.4Z" fill="#fff"/><path d="M177.3,146.3h.9v1.6h1.4v.8h-1.4v3.6a1.1,1.1,0,0,0,.3.8l.6.2h.5v.8H179a1.7,1.7,0,0,1-1.3-.4c-.3-.2-.4-.7-.4-1.3v-3.8h-1v-.8h1Z" fill="#fff"/><path d="M182,146.4l-.4.2-.5-.2a.8.8,0,0,1-.2-.5c0-.2.1-.3.2-.5l.5-.2.4.2a.6.6,0,0,1,.2.5C182.2,146.1,182.2,146.3,182,146.4Zm-.9,7.8v-6.3h.9v6.3Z" fill="#fff"/><path d="M188.4,153.4a2.5,2.5,0,0,1-2,.9,2.6,2.6,0,0,1-2.1-.9,4.5,4.5,0,0,1,0-4.8,2.9,2.9,0,0,1,2.1-.8,2.8,2.8,0,0,1,2,.8,4,4,0,0,1,0,4.8Zm-3.3-.6a1.7,1.7,0,0,0,2.6,0,3.2,3.2,0,0,0,.5-1.8,2.9,2.9,0,0,0-.5-1.7,1.7,1.7,0,0,0-2.6,0,2.3,2.3,0,0,0-.5,1.7A2.6,2.6,0,0,0,185.1,152.8Z" fill="#fff"/><path d="M190.7,154.2v-6.3h.9v1h.1a1.7,1.7,0,0,1,1.8-1.1,2.1,2.1,0,0,1,1.6.6,2.4,2.4,0,0,1,.6,1.7v4.1h-1v-3.9a1.6,1.6,0,0,0-.4-1.2,1.2,1.2,0,0,0-1-.4,1.3,1.3,0,0,0-1.2.5,1.6,1.6,0,0,0-.4,1.2v3.8Z" fill="#fff"/><path d="M134.5,166.3h1a2.7,2.7,0,0,1-.9,1.2,3.1,3.1,0,0,1-1.7.5,2.5,2.5,0,0,1-2-.9,3.3,3.3,0,0,1-.7-2.3,3.6,3.6,0,0,1,.7-2.4,2.7,2.7,0,0,1,4,0,3.7,3.7,0,0,1,.7,2.3v.3h-4.4a2.5,2.5,0,0,0,.5,1.5,1.7,1.7,0,0,0,1.3.5A1.5,1.5,0,0,0,134.5,166.3Zm-1.6-3.9a1.7,1.7,0,0,0-1.2.5,1.9,1.9,0,0,0-.5,1.3h3.3a1.8,1.8,0,0,0-.4-1.3A1.7,1.7,0,0,0,132.9,162.4Z" fill="#fff"/><path d="M139,165.5h-.1l-1.4,2.4h-1.1l2.1-3.1-2.1-3.2h1.1l1.4,2.4h.1l1.5-2.4h1.1l-2.1,3.1,2.1,3.2h-1.2Z" fill="#fff"/><path d="M144.6,168a2.5,2.5,0,0,1-1.5-.5,1.7,1.7,0,0,1-.6-1.4,1.6,1.6,0,0,1,.6-1.3,2.6,2.6,0,0,1,1.7-.5h1.7v-.6a1.2,1.2,0,0,0-.3-.9,1.8,1.8,0,0,0-1.1-.3l-.9.2a.7.7,0,0,0-.4.6h-1a1.9,1.9,0,0,1,.7-1.2,3.1,3.1,0,0,1,1.7-.5,2.4,2.4,0,0,1,1.7.6,1.8,1.8,0,0,1,.6,1.5v4.3h-.9V167h-.1a1.8,1.8,0,0,1-.8.7A2,2,0,0,1,144.6,168Zm.2-.9a1.5,1.5,0,0,0,1.7-1.5V165h-1.6a1.3,1.3,0,0,0-1,.3,1,1,0,0,0-.4.7,1.2,1.2,0,0,0,.4.8Z" fill="#fff"/><path d="M149.3,167.9v-6.3h.9v1h.1a1.6,1.6,0,0,1,.6-.8,2,2,0,0,1,1.1-.3,1.7,1.7,0,0,1,1,.3,1.6,1.6,0,0,1,.6.8h.1a2,2,0,0,1,.8-.8,2,2,0,0,1,1.1-.3,2,2,0,0,1,1.4.5,2.1,2.1,0,0,1,.5,1.6v4.3h-.9v-4.1a1.2,1.2,0,0,0-1.3-1.4,1.5,1.5,0,0,0-1,.4,1.5,1.5,0,0,0-.4,1.1v4h-1v-4.3a1.6,1.6,0,0,0-.3-.9,1.7,1.7,0,0,0-1-.3,1.4,1.4,0,0,0-1,.5,2.1,2.1,0,0,0-.4,1.1v3.9Z" fill="#fff"/><path d="M159.1,163.3a1.9,1.9,0,0,1,.7-1.3,2.8,2.8,0,0,1,3.2,0,1.9,1.9,0,0,1,.7,1.2h-1a.7.7,0,0,0-.4-.6c-.2-.2-.5-.2-.9-.2l-.9.2a.8.8,0,0,0-.4.7.5.5,0,0,0,.3.5c.1.2.4.3.8.4l.9.2,1.3.6a1.5,1.5,0,0,1,.4,1.1,1.6,1.6,0,0,1-.7,1.4,3.1,3.1,0,0,1-1.7.5,2.9,2.9,0,0,1-1.7-.5,1.5,1.5,0,0,1-.7-1.2h1c.1.3.2.5.5.6a1.2,1.2,0,0,0,.9.3,1.7,1.7,0,0,0,1-.3.8.8,0,0,0,.4-.7c0-.4-.3-.7-1-.9l-1-.3a2.3,2.3,0,0,1-1.3-.6A1.8,1.8,0,0,1,159.1,163.3Z" fill="#fff"/><rect x="41.8" y="111.5" width="57.7" height="15.75" rx="2.5" ry="2.5" fill="#2bbbad"/><path d="M51.4,122.4v1.4H46.2v-8h5.2v1.4H47.8v1.9h3.4v1.3H47.8v2Z" fill="#fff"/><path d="M52.8,119.5a1.5,1.5,0,0,1,.7-1.4,2.3,2.3,0,0,1,1.7-.5,3,3,0,0,1,1.8.4,1.7,1.7,0,0,1,.7,1.4H56.3a1,1,0,0,0-.4-.5l-.7-.2-.6.2a.5.5,0,0,0-.3.5.4.4,0,0,0,.2.4l.6.2,1.1.3a3.2,3.2,0,0,1,1.3.5,2.1,2.1,0,0,1,.4,1.1,1.9,1.9,0,0,1-.8,1.5,2.7,2.7,0,0,1-1.9.5,3.2,3.2,0,0,1-1.8-.4,1.8,1.8,0,0,1-.8-1.4h1.6a1,1,0,0,0,1.1.7l.7-.2a.5.5,0,0,0,.3-.5.8.8,0,0,0-.2-.4l-.5-.2-1.1-.2a3.2,3.2,0,0,1-1.3-.7A1.4,1.4,0,0,1,52.8,119.5Z" fill="#fff"/><path d="M58.9,119.5a1.5,1.5,0,0,1,.7-1.4,2.4,2.4,0,0,1,1.8-.5,2.9,2.9,0,0,1,1.7.4,1.5,1.5,0,0,1,.7,1.4H62.4a.9.9,0,0,0-.3-.5l-.7-.2-.7.2a.5.5,0,0,0-.3.5.8.8,0,0,0,.2.4l.6.2,1.1.3a3.2,3.2,0,0,1,1.3.5,2.1,2.1,0,0,1,.4,1.1,2.1,2.1,0,0,1-.7,1.5,2.9,2.9,0,0,1-1.9.5,3.6,3.6,0,0,1-1.9-.4,1.7,1.7,0,0,1-.7-1.4h1.5a1,1,0,0,0,1.1.7l.7-.2a.5.5,0,0,0,.3-.5.6.6,0,0,0-.1-.4l-.6-.2-1.1-.2a3.2,3.2,0,0,1-1.3-.7A1.4,1.4,0,0,1,58.9,119.5Z" fill="#fff"/><path d="M69.1,122.1h1.5a2.5,2.5,0,0,1-.9,1.3,2.9,2.9,0,0,1-1.9.5,2.5,2.5,0,0,1-2.1-.8,3.2,3.2,0,0,1-.7-2.3,3.6,3.6,0,0,1,.7-2.4,3.2,3.2,0,0,1,4.2,0,3.1,3.1,0,0,1,.7,2.2v.5H66.5a1.8,1.8,0,0,0,.4,1.1,1.3,1.3,0,0,0,1,.4l.8-.2A.8.8,0,0,0,69.1,122.1Zm-1.3-3.3a1.2,1.2,0,0,0-.9.4,1.9,1.9,0,0,0-.4.9h2.6a3,3,0,0,0-.4-1A1.2,1.2,0,0,0,67.8,118.8Z" fill="#fff"/><path d="M71.9,123.8v-6.1h1.5v1h.1a1,1,0,0,1,.6-.8,2,2,0,0,1,1.1-.3,1.8,1.8,0,0,1,1.5.6,2.2,2.2,0,0,1,.6,1.7v3.9H75.7v-3.6c0-.8-.4-1.2-1.1-1.2a1.1,1.1,0,0,0-.8.3,1.3,1.3,0,0,0-.4,1v3.5Z" fill="#fff"/><path d="M79.2,116.2h1.6v1.6H82V119H80.8v2.8a1.4,1.4,0,0,0,.2.6l.6.2H82v1.3h-.8a2.1,2.1,0,0,1-1.5-.4,1.4,1.4,0,0,1-.5-1.2V119h-.9v-1.2h.9Z" fill="#fff"/><path d="M84.1,116.8a.7.7,0,0,1-.9-.8,1.4,1.4,0,0,1,.2-.6l.7-.2.7.2a.7.7,0,0,1,.2.6c0,.3,0,.5-.2.6A.8.8,0,0,1,84.1,116.8Zm-.8,7v-6.1h1.6v6.1Z" fill="#fff"/><path d="M88.1,123.9a2.2,2.2,0,0,1-1.4-.5,1.5,1.5,0,0,1-.5-1.3,1.5,1.5,0,0,1,.6-1.3c.3-.4.9-.5,1.7-.6h1.4v-.5a.9.9,0,0,0-.3-.6l-.7-.2a1.1,1.1,0,0,0-1.1.6H86.4a1.4,1.4,0,0,1,.8-1.3,3.5,3.5,0,0,1,3.6,0,2,2,0,0,1,.6,1.5v4.2H89.9V123h-.1a1.6,1.6,0,0,1-.7.7Zm.5-1.2a1.2,1.2,0,0,0,.9-.3.9.9,0,0,0,.4-.8v-.5H88.7c-.7.1-1,.3-1,.8a.8.8,0,0,0,.2.5Z" fill="#fff"/><path d="M93,123.8v-8.4h1.6v8.4Z" fill="#fff"/><path d="M148.2,124.5a3.5,3.5,0,0,1-2.7-1.1,5,5,0,0,1-1-3.1,4.8,4.8,0,0,1,1-3.1,3.2,3.2,0,0,1,2.7-1.1,3.1,3.1,0,0,1,2.3.8,3,3,0,0,1,1,2.2h-1.6a1.1,1.1,0,0,0-.6-1.1,1.6,1.6,0,0,0-1.1-.5,1.9,1.9,0,0,0-1.5.8,3.7,3.7,0,0,0-.5,2,3.9,3.9,0,0,0,.5,2,1.8,1.8,0,0,0,1.5.7,1.9,1.9,0,0,0,1.2-.4,1.7,1.7,0,0,0,.6-1h1.5a3,3,0,0,1-1,2.1A3.6,3.6,0,0,1,148.2,124.5Z" fill="#fff"/><path d="M152.9,124.3v-6.1h1.5v.9h.1a1.2,1.2,0,0,1,.5-.7,1.7,1.7,0,0,1,1-.3h.6v1.5h-.7a1.4,1.4,0,0,0-1.1.4,1.5,1.5,0,0,0-.4,1v3.4Z" fill="#fff"/><path d="M158.5,117.3l-.7-.2a1.4,1.4,0,0,1-.2-.6.9.9,0,1,1,1.8,0,1.4,1.4,0,0,1-.2.6Zm-.8,7v-6.1h1.6v6.1Z" fill="#fff"/><path d="M161.3,116.7h1.6v1.5h1.2v1.3h-1.2v2.7c0,.3,0,.5.2.6s.3.2.5.2h.5v1.2h-.8a2.1,2.1,0,0,1-1.5-.4,1.6,1.6,0,0,1-.5-1.3v-3.1h-.9v-1.3h.9Z" fill="#fff"/><path d="M166.2,117.3l-.7-.2a1.4,1.4,0,0,1-.2-.6.9.9,0,1,1,1.8,0,1.4,1.4,0,0,1-.2.6Zm-.8,7v-6.1H167v6.1Z" fill="#fff"/><path d="M173.8,120.3h-1.5a.9.9,0,0,0-.3-.7,1.1,1.1,0,0,0-.8-.3,1.1,1.1,0,0,0-1,.5,3.4,3.4,0,0,0,0,2.8,1.1,1.1,0,0,0,1,.5,1.1,1.1,0,0,0,.8-.3.6.6,0,0,0,.3-.6h1.5a2.3,2.3,0,0,1-.8,1.6,2.8,2.8,0,0,1-1.8.6,2.9,2.9,0,0,1-2.2-.8,4.5,4.5,0,0,1,0-4.8,2.9,2.9,0,0,1,2.2-.8,2.6,2.6,0,0,1,1.8.6A2.5,2.5,0,0,1,173.8,120.3Z" fill="#fff"/><path d="M176.6,124.4a2.4,2.4,0,0,1-1.4-.5,2.2,2.2,0,0,1-.5-1.4,1.6,1.6,0,0,1,.6-1.3,2.9,2.9,0,0,1,1.7-.5h1.4v-.5c0-.3,0-.5-.2-.6a1.5,1.5,0,0,0-.8-.2.9.9,0,0,0-1,.6h-1.5a1.8,1.8,0,0,1,.8-1.4,3.5,3.5,0,0,1,1.8-.5,2.4,2.4,0,0,1,1.8.6,1.6,1.6,0,0,1,.7,1.5v4.2h-1.5v-.8h-.1a1.3,1.3,0,0,1-.7.6A2,2,0,0,1,176.6,124.4Zm.6-1.2a1.2,1.2,0,0,0,.9-.4.9.9,0,0,0,.3-.7v-.5h-1.2c-.6,0-1,.3-1,.7a.7.7,0,0,0,.3.6Z" fill="#fff"/><path d="M181.6,124.3v-8.5h1.5v8.5Z" fill="#fff"/><path d="M277.8,63.7a3.4,3.4,0,0,1-2.8-1.4,5.3,5.3,0,0,1-1.1-3.6,5.7,5.7,0,0,1,1.1-3.6,3.7,3.7,0,0,1,5.2-.4,3.8,3.8,0,0,1,1.1,2.4H280a2.2,2.2,0,0,0-.8-1.4,2.4,2.4,0,0,0-1.4-.5,2,2,0,0,0-1.8.9,4.4,4.4,0,0,0-.7,2.6,4,4,0,0,0,.7,2.6,1.9,1.9,0,0,0,1.8,1,2.2,2.2,0,0,0,1.4-.5,2,2,0,0,0,.8-1.2h1.3a3.4,3.4,0,0,1-3.5,3.1Z" fill="#fff" stroke="#fff" stroke-miterlimit="10" stroke-width="0.25"/><path d="M288.5,62.1v1.3h-5.4V54.1h5.4v1.3h-4.1V58h3.9v1.3h-3.9v2.8Z" fill="#fff" stroke="#fff" stroke-miterlimit="10" stroke-width="0.25"/><path d="M291.7,59.9v3.5h-1.3V54.1h3.4a3,3,0,0,1,2.1.7,3.1,3.1,0,0,1,.7,2.1,3.1,3.1,0,0,1-.4,1.7,2.3,2.3,0,0,1-1.2,1l1.9,3.8h-1.5l-1.8-3.5Zm0-4.6v3.3h2a1.2,1.2,0,0,0,1.1-.4,1.7,1.7,0,0,0-1.2-2.9Z" fill="#fff" stroke="#fff" stroke-miterlimit="10" stroke-width="0.25"/><path d="M302,63.4h-1.3v-8H298V54.1h6.7v1.3H302Z" fill="#fff" stroke="#fff" stroke-miterlimit="10" stroke-width="0.25"/><path d="M307.6,63.4h-1.3V54.1h1.3Z" fill="#fff" stroke="#fff" stroke-miterlimit="10" stroke-width="0.25"/><path d="M311.1,63.4h-1.3V54.1h5.3v1.3h-4v2.9h3.7v1.2h-3.7Z" fill="#fff" stroke="#fff" stroke-miterlimit="10" stroke-width="0.25"/><path d="M318.2,63.4h-1.4V54.1h1.4Z" fill="#fff" stroke="#fff" stroke-miterlimit="10" stroke-width="0.25"/><path d="M325.7,62.1v1.3h-5.4V54.1h5.4v1.3h-4.1V58h3.9v1.3h-3.9v2.8Z" fill="#fff" stroke="#fff" stroke-miterlimit="10" stroke-width="0.25"/><path d="M327.6,54.1h3.1a3.8,3.8,0,0,1,3,1.2,4.9,4.9,0,0,1,1,3.4,5.2,5.2,0,0,1-1,3.5,3.8,3.8,0,0,1-3,1.2h-3.1Zm1.4,1.3v6.7h1.6a2.6,2.6,0,0,0,2.1-.9,4.4,4.4,0,0,0,.7-2.5,4.3,4.3,0,0,0-.7-2.4,2.6,2.6,0,0,0-2.1-.9Z" fill="#fff" stroke="#fff" stroke-miterlimit="10" stroke-width="0.25"/><path d="M258.9,71.5h3.4a2.8,2.8,0,0,1,2,.8,3.6,3.6,0,0,1,.8,2.3,3.1,3.1,0,0,1-.8,2.2,2.7,2.7,0,0,1-2.1.9h-2v3.1h-1.3Zm1.3,1.3v3.6h1.7a1.7,1.7,0,0,0,1.8-1.8,1.5,1.5,0,0,0-1.8-1.8Z" fill="#fff" stroke="#fff" stroke-miterlimit="10" stroke-width="0.25"/><path d="M268.1,77.3v3.5h-1.3V71.5h3.4a2.4,2.4,0,0,1,2,.8,2.9,2.9,0,0,1,.8,2.1,4.2,4.2,0,0,1-.4,1.6,2.2,2.2,0,0,1-1.3,1l2,3.8h-1.6L270,77.3Zm0-4.5V76H270a1.6,1.6,0,1,0,0-3.2Z" fill="#fff" stroke="#fff" stroke-miterlimit="10" stroke-width="0.25"/><path d="M278.5,71.3a3.4,3.4,0,0,1,2.9,1.3,5,5,0,0,1,1.1,3.6,4.8,4.8,0,0,1-1.1,3.5,3.4,3.4,0,0,1-2.9,1.4,3.8,3.8,0,0,1-2.9-1.3,5.7,5.7,0,0,1-1.1-3.6,5.5,5.5,0,0,1,1.1-3.6A3.5,3.5,0,0,1,278.5,71.3Zm0,1.3a2.2,2.2,0,0,0-1.9,1,4,4,0,0,0-.7,2.6,4.4,4.4,0,0,0,.7,2.6,2.3,2.3,0,0,0,1.9.9,2.2,2.2,0,0,0,1.9-.9,4.5,4.5,0,0,0,.8-2.6,4,4,0,0,0-.8-2.6A2.1,2.1,0,0,0,278.5,72.6Z" fill="#fff" stroke="#fff" stroke-miterlimit="10" stroke-width="0.25"/><path d="M285.6,80.8h-1.3V71.5h5.3v1.3h-4v2.9h3.7V77h-3.7Z" fill="#fff" stroke="#fff" stroke-miterlimit="10" stroke-width="0.25"/><path d="M296.8,79.5v1.3h-5.4V71.5h5.4v1.3h-4.1v2.6h3.9v1.3h-3.9v2.8Z" fill="#fff" stroke="#fff" stroke-miterlimit="10" stroke-width="0.25"/><path d="M298.3,78.3h1.3a2,2,0,0,0,.6,1.1,3.3,3.3,0,0,0,1.5.4,2.8,2.8,0,0,0,1.3-.4,1.4,1.4,0,0,0,.5-1.1.9.9,0,0,0-.4-.8c-.2-.3-.7-.4-1.2-.6l-1.1-.3a3,3,0,0,1-1.7-.9,2.4,2.4,0,0,1-.6-1.7,2.5,2.5,0,0,1,.9-2,3.1,3.1,0,0,1,2.2-.7,3.2,3.2,0,0,1,2.2.7,2.3,2.3,0,0,1,.9,1.9h-1.3a1.2,1.2,0,0,0-.6-1,2.1,2.1,0,0,0-1.2-.4,2.8,2.8,0,0,0-1.3.4,1.3,1.3,0,0,0-.4,1,1,1,0,0,0,.3.8,3.4,3.4,0,0,0,1.2.6l1,.2a4.3,4.3,0,0,1,1.9,1,2.3,2.3,0,0,1,.5,1.7,2.9,2.9,0,0,1-.8,2.1,4,4,0,0,1-4.8,0A2.7,2.7,0,0,1,298.3,78.3Z" fill="#fff" stroke="#fff" stroke-miterlimit="10" stroke-width="0.25"/><path d="M306.2,78.3h1.3a2,2,0,0,0,.6,1.1,3.3,3.3,0,0,0,1.4.4,2.9,2.9,0,0,0,1.4-.4,1.4,1.4,0,0,0,.5-1.1.9.9,0,0,0-.4-.8,3.4,3.4,0,0,0-1.2-.6l-1.1-.3a3,3,0,0,1-1.7-.9,2.4,2.4,0,0,1-.6-1.7,2.5,2.5,0,0,1,.9-2,3.1,3.1,0,0,1,2.2-.7,3.2,3.2,0,0,1,2.2.7,2.3,2.3,0,0,1,.9,1.9h-1.3a1.5,1.5,0,0,0-.6-1,2.1,2.1,0,0,0-1.2-.4,2.8,2.8,0,0,0-1.3.4,1.3,1.3,0,0,0-.4,1,1,1,0,0,0,.3.8,3.4,3.4,0,0,0,1.2.6l1,.2a4.3,4.3,0,0,1,1.9,1,3.1,3.1,0,0,1-.3,3.8,3.7,3.7,0,0,1-2.5.8,3.6,3.6,0,0,1-2.3-.8A2.4,2.4,0,0,1,306.2,78.3Z" fill="#fff" stroke="#fff" stroke-miterlimit="10" stroke-width="0.25"/><path d="M315.8,80.8h-1.3V71.5h1.3Z" fill="#fff" stroke="#fff" stroke-miterlimit="10" stroke-width="0.25"/><path d="M321.6,71.3a3.5,3.5,0,0,1,2.9,1.3,5.5,5.5,0,0,1,1.1,3.6,5.2,5.2,0,0,1-1.1,3.5,3.6,3.6,0,0,1-2.9,1.4,3.6,3.6,0,0,1-2.9-1.3,5.7,5.7,0,0,1-1.1-3.6,5.5,5.5,0,0,1,1.1-3.6A3.5,3.5,0,0,1,321.6,71.3Zm0,1.3a2.1,2.1,0,0,0-1.9,1,4,4,0,0,0-.7,2.6,4.4,4.4,0,0,0,.7,2.6,2.2,2.2,0,0,0,1.9.9,2.3,2.3,0,0,0,1.9-.9,4.4,4.4,0,0,0,.7-2.6,4,4,0,0,0-.7-2.6A2.2,2.2,0,0,0,321.6,72.6Z" fill="#fff" stroke="#fff" stroke-miterlimit="10" stroke-width="0.25"/><path d="M328.7,80.8h-1.3V71.5h1.2l4.3,6.6h.1V71.5h1.3v9.3h-1.2l-4.4-6.6h0Z" fill="#fff" stroke="#fff" stroke-miterlimit="10" stroke-width="0.25"/><path d="M342,80.8l-.8-2.4H338l-.8,2.4h-1.4l3.1-9.3h1.4l3.1,9.3Zm-2.5-7.6-1.2,3.9h2.6l-1.3-3.9Z" fill="#fff" stroke="#fff" stroke-miterlimit="10" stroke-width="0.25"/><path d="M350.2,79.5v1.3h-5.3V71.5h1.3v8Z" fill="#fff" stroke="#fff" stroke-miterlimit="10" stroke-width="0.25"/><path d="M289.8,88.9h3.1a3.8,3.8,0,0,1,3,1.2,5.2,5.2,0,0,1,1,3.5,5.1,5.1,0,0,1-1,3.4,3.5,3.5,0,0,1-3,1.3h-3.1Zm1.3,1.3v6.7h1.7a2.8,2.8,0,0,0,2-.8,3.9,3.9,0,0,0,.8-2.5,3.7,3.7,0,0,0-.8-2.5,2.5,2.5,0,0,0-2-.9Z" fill="#fff" stroke="#fff" stroke-miterlimit="10" stroke-width="0.25"/><path d="M303.8,98.3l-.7-2.5h-3.3l-.8,2.5h-1.4l3.1-9.4h1.5l3,9.4Zm-2.4-7.7-1.3,4h2.6l-1.2-4Z" fill="#fff" stroke="#fff" stroke-miterlimit="10" stroke-width="0.25"/><path d="M309.3,98.3h-1.4V90.2h-2.7V88.9h6.7v1.3h-2.6Z" fill="#fff" stroke="#fff" stroke-miterlimit="10" stroke-width="0.25"/><path d="M318.1,98.3l-.8-2.5h-3.2l-.8,2.5h-1.4l3.1-9.4h1.4l3.1,9.4Zm-2.4-7.7-1.3,4H317l-1.2-4Z" fill="#fff" stroke="#fff" stroke-miterlimit="10" stroke-width="0.25"/><path d="M274.9,113.2h1.3a1.7,1.7,0,0,0,.6,1,2.3,2.3,0,0,0,1.4.4,2.1,2.1,0,0,0,1.4-.4,1.4,1.4,0,0,0,.5-1,1,1,0,0,0-.4-.9l-1.2-.6-1.1-.2a3.1,3.1,0,0,1-1.7-1,2.1,2.1,0,0,1-.6-1.6,2.4,2.4,0,0,1,.9-2,2.7,2.7,0,0,1,2.2-.8,3.2,3.2,0,0,1,2.2.7,2.5,2.5,0,0,1,.9,2H280a1.3,1.3,0,0,0-.6-1.1,2.1,2.1,0,0,0-1.2-.3,2,2,0,0,0-1.3.4,1.1,1.1,0,0,0-.4,1,1.1,1.1,0,0,0,.3.8,3.3,3.3,0,0,0,1.2.5l1,.3a4.2,4.2,0,0,1,1.9.9,3.1,3.1,0,0,1-.3,3.8,3.7,3.7,0,0,1-2.5.8,3.5,3.5,0,0,1-2.3-.7A2.9,2.9,0,0,1,274.9,113.2Z" fill="#fff" stroke="#fff" stroke-miterlimit="10" stroke-width="0.25"/><path d="M286.7,115.9a3.3,3.3,0,0,1-2.8-1.3,6.4,6.4,0,0,1,0-7.2,3.3,3.3,0,0,1,2.8-1.3,3.6,3.6,0,0,1,2.4.9,3.8,3.8,0,0,1,1.1,2.3h-1.3a2.2,2.2,0,0,0-.8-1.3,2,2,0,0,0-1.4-.6,2.1,2.1,0,0,0-1.8,1,5.2,5.2,0,0,0,0,5.2,2.1,2.1,0,0,0,1.8,1,2.2,2.2,0,0,0,1.4-.5,2,2,0,0,0,.8-1.3h1.3a3.6,3.6,0,0,1-1.1,2.3A4.1,4.1,0,0,1,286.7,115.9Z" fill="#fff" stroke="#fff" stroke-miterlimit="10" stroke-width="0.25"/><path d="M293.3,115.7H292v-9.4h1.3Z" fill="#fff" stroke="#fff" stroke-miterlimit="10" stroke-width="0.25"/><path d="M300.9,114.4v1.3h-5.5v-9.4h5.5v1.3h-4.1v2.7h3.8v1.2h-3.8v2.9Z" fill="#fff" stroke="#fff" stroke-miterlimit="10" stroke-width="0.25"/><path d="M304.1,115.7h-1.3v-9.4H304l4.4,6.7h.1v-6.7h1.2v9.4h-1.1l-4.4-6.7h-.1Z" fill="#fff" stroke="#fff" stroke-miterlimit="10" stroke-width="0.25"/><path d="M315.4,115.7h-1.3v-8.1h-2.7v-1.3h6.7v1.3h-2.7Z" fill="#fff" stroke="#fff" stroke-miterlimit="10" stroke-width="0.25"/><path d="M321,115.7h-1.3v-9.4H321Z" fill="#fff" stroke="#fff" stroke-miterlimit="10" stroke-width="0.25"/><path d="M322.8,113.2h1.3a1.1,1.1,0,0,0,.6,1,2.1,2.1,0,0,0,1.4.4,1.8,1.8,0,0,0,1.3-.4,1.2,1.2,0,0,0,.6-1,1.3,1.3,0,0,0-.4-.9l-1.3-.6-1.1-.2a4,4,0,0,1-1.7-1,2.5,2.5,0,0,1-.5-1.6,2.6,2.6,0,0,1,.8-2,3.1,3.1,0,0,1,2.3-.8,3.2,3.2,0,0,1,2.2.7,3.4,3.4,0,0,1,.9,2h-1.3a2,2,0,0,0-.6-1.1,2.1,2.1,0,0,0-1.2-.3,1.8,1.8,0,0,0-1.3.4,1.1,1.1,0,0,0-.5,1,.9.9,0,0,0,.4.8,2.3,2.3,0,0,0,1.2.5l.9.3a3.7,3.7,0,0,1,1.9.9,2.4,2.4,0,0,1,.6,1.7,2.6,2.6,0,0,1-.9,2.1,3.6,3.6,0,0,1-2.4.8,3.5,3.5,0,0,1-2.3-.7A2.5,2.5,0,0,1,322.8,113.2Z" fill="#fff" stroke="#fff" stroke-miterlimit="10" stroke-width="0.25"/><path d="M334.5,115.7h-1.3v-8.1h-2.7v-1.3h6.7v1.3h-2.7Z" fill="#fff" stroke="#fff" stroke-miterlimit="10" stroke-width="0.25"/></svg>