<svg xmlns="http://www.w3.org/2000/svg" xmlns:xlink="http://www.w3.org/1999/xlink" viewBox="0 0 379.28 374.22"><defs><style>.cls-1,.cls-22{fill:#aa784b;}.cls-1{opacity:0;}.cls-2{isolation:isolate;}.cls-3,.cls-5,.cls-51,.cls-55,.cls-56,.cls-57,.cls-6,.cls-63,.cls-7{fill:none;}.cls-3,.cls-57,.cls-59{stroke:#43adb5;}.cls-3,.cls-5,.cls-51,.cls-52,.cls-53,.cls-54,.cls-55,.cls-56,.cls-57,.cls-58,.cls-59,.cls-6,.cls-61,.cls-7,.cls-85{stroke-miterlimit:10;}.cls-3,.cls-5,.cls-51,.cls-6,.cls-7{stroke-width:1.5px;}.cls-3{stroke-dasharray:5;}.cls-4{fill:#57a9cb;}.cls-5,.cls-56,.cls-58,.cls-6,.cls-7{stroke:#bf364d;}.cls-6{stroke-dasharray:3.61 3.61;}.cls-7{stroke-dasharray:5.24 5.24;}.cls-18,.cls-19,.cls-28,.cls-30,.cls-47,.cls-8{fill:#fff;}.cls-9{fill:#bfbebe;}.cls-10{fill:#444343;}.cls-11{fill:aqua;}.cls-12{fill:#a2b2b2;}.cls-13{fill:#7c7b7b;}.cls-14{fill:#404041;opacity:0.4;}.cls-15{fill:#dddddc;}.cls-16{fill:#c8d8d8;}.cls-16,.cls-17,.cls-21,.cls-39,.cls-42,.cls-43,.cls-44{mix-blend-mode:multiply;}.cls-17{fill:#a4baba;}.cls-17,.cls-28,.cls-29,.cls-42,.cls-46{opacity:0.5;}.cls-18{opacity:0.3;}.cls-18,.cls-37,.cls-46{mix-blend-mode:screen;}.cls-19{opacity:0.2;}.cls-20{fill:#cccbcb;}.cls-21{fill:#878f8c;}.cls-23{clip-path:url(#clip-path);}.cls-24{fill:#c28f5f;}.cls-25{fill:url(#radial-gradient);}.cls-26{fill:#131416;}.cls-27{fill:#b18661;}.cls-30,.cls-39,.cls-43{opacity:0.7;}.cls-31{fill:#e2bb9a;}.cls-32,.cls-52,.cls-53,.cls-54{fill:#14586b;}.cls-33{fill:#593924;}.cls-34{fill:#0d223f;}.cls-35{fill:#db9667;}.cls-36{fill:#e59e6e;}.cls-37,.cls-46{fill:#493e3f;}.cls-38{fill:#140c0c;}.cls-39{fill:#461c10;}.cls-40{fill:#3d241d;}.cls-41{fill:#542e24;}.cls-42,.cls-43{fill:#7a3923;}.cls-44{fill:url(#radial-gradient-2);}.cls-45{fill:#d38a54;}.cls-47{opacity:0.1;}.cls-48{fill:#fcfbfa;}.cls-49{fill:#cecece;}.cls-50{fill:#2c7e9b;}.cls-51,.cls-52,.cls-53,.cls-54,.cls-55{stroke:#14586b;}.cls-52{font-size:11.37px;}.cls-52,.cls-53,.cls-54{stroke-width:0.5px;}.cls-52,.cls-53,.cls-54,.cls-58,.cls-59,.cls-61{font-family:MyriadPro-Regular, Myriad Pro;}.cls-53{font-size:11.37px;}.cls-54{font-size:18.85px;}.cls-55,.cls-56,.cls-57{stroke-width:1.8px;}.cls-58,.cls-59{font-size:20.77px;}.cls-58{fill:#bf364d;}.cls-58,.cls-59,.cls-61,.cls-85{stroke-width:0.25px;}.cls-59{fill:#43adb5;}.cls-60{letter-spacing:0.01em;}.cls-61{font-size:20.22px;}.cls-61,.cls-85{fill:#0975c6;stroke:#0975c6;}.cls-62{letter-spacing:0.03em;}.cls-64{fill:#f4bb80;}.cls-65{fill:#705947;}.cls-66{fill:#ead7ca;}.cls-67{fill:#fff1e6;}.cls-68{fill:#c2e2ff;}.cls-69{fill:#d3a172;}.cls-70{fill:#ce3028;}.cls-71{fill:#fa4a3a;}.cls-72{fill:#eab07d;}.cls-73{fill:#39160d;}.cls-74{fill:#f0e2d7;}.cls-75{fill:#e1cdbb;}.cls-76{fill:#cdbbaa;}.cls-77{fill:#f28097;}.cls-78{fill:#c65064;}.cls-79{fill:#eb909b;}.cls-80{fill:#ec8ca0;}.cls-81{fill:#010202;}.cls-82{fill:#f0e4d8;}.cls-83{fill:#e36c81;}.cls-84{fill:#c88341;}</style><clipPath id="clip-path"><path id="_Clipping_Path_" data-name="&lt;Clipping Path&gt;" class="cls-1" d="M100.86,298.19c0,.64-1.77,1.16-4,1.16s-4-.52-4-1.16,1.77-1.17,4-1.17S100.86,297.54,100.86,298.19Z"/></clipPath><radialGradient id="radial-gradient" cx="93.66" cy="840.98" r="4.3" gradientTransform="translate(4.81 83.12) scale(0.98 0.26)" gradientUnits="userSpaceOnUse"><stop offset="0.27" stop-color="#131416"/><stop offset="0.45" stop-color="#151617"/><stop offset="0.55" stop-color="#1d1b1a"/><stop offset="0.63" stop-color="#2b2520"/><stop offset="0.7" stop-color="#3f3328"/><stop offset="0.77" stop-color="#584433"/><stop offset="0.82" stop-color="#775a40"/><stop offset="0.88" stop-color="#9b744f"/><stop offset="0.93" stop-color="#c28f5f"/></radialGradient><radialGradient id="radial-gradient-2" cx="326.25" cy="290.69" r="3.49" gradientTransform="matrix(-0.97, 0, 0, 0.32, 588.95, 169.67)" gradientUnits="userSpaceOnUse"><stop offset="0.01" stop-color="#ce765b" stop-opacity="0"/><stop offset="0.33" stop-color="#cc755a" stop-opacity="0.02"/><stop offset="0.5" stop-color="#c77156" stop-opacity="0.08"/><stop offset="0.63" stop-color="#be6a50" stop-opacity="0.19"/><stop offset="0.75" stop-color="#b16148" stop-opacity="0.35"/><stop offset="0.85" stop-color="#a0543c" stop-opacity="0.55"/><stop offset="0.94" stop-color="#8b462e" stop-opacity="0.79"/><stop offset="1" stop-color="#7a3923"/></radialGradient></defs><title>Technology_Singularity</title><g class="cls-2"><g id="Layer_1" data-name="Layer 1"><polyline class="cls-3" points="304.33 199.33 304.33 225.17 225.33 253.33"/><rect class="cls-4" x="199.69" y="239.16" width="156.31" height="110.13" rx="9" ry="9"/><line class="cls-5" x1="215" y1="208.33" x2="215" y2="210.83"/><line class="cls-6" x1="215" y1="214.45" x2="215" y2="219.87"/><polyline class="cls-5" points="215 221.67 215 224.17 212.64 224.99"/><line class="cls-7" x1="207.68" y1="226.69" x2="140.84" y2="249.67"/><line class="cls-5" x1="138.36" y1="250.52" x2="136" y2="251.33"/><rect class="cls-4" x="27" y="239.13" width="156.31" height="110.13" rx="9" ry="9"/><path class="cls-8" d="M85.79,303.89c-1.34.33-5.42,2.19-5.8,3.12s.14,1.09.24,1.24c.26.41-.37.61.11.84s1.64-.3,2.12-.61a48.61,48.61,0,0,0,4.45-4"/><path class="cls-8" d="M79.64,306.91A44.41,44.41,0,0,0,76,300.32c-.68-.91-1.35-2.53-2.35-2.25-.3.09-.59.71-.84.91a4.27,4.27,0,0,0-1.61,1.88c-.3.92-.48,1.13,0,1.92a37.89,37.89,0,0,0,4.3,4l2.79,1.92.66-.6c.1-.95-.84-.13-.18-.75"/><path class="cls-9" d="M75.25,299.15c1,2.69-2.49,5-5.06,3.07-.26-4.09-2.76-5.25-3-6,1.69-.19,6-.45,8.07,3"/><ellipse class="cls-9" cx="79.64" cy="308.12" rx="1.41" ry="1.46" transform="translate(-122.22 62.09) rotate(-24.88)"/><path class="cls-4" d="M89.44,303.34a1.13,1.13,0,0,0-.88.08.63.63,0,0,1-1-.26,1,1,0,0,1,.18-1.18,2.34,2.34,0,0,1,1.92-.31C90.57,301.92,90.3,303.59,89.44,303.34Z"/><path class="cls-8" d="M89.9,303c-.41-.13-1-.37-1.38-.14s-.35.85-.24,1.38.31.57.75.66a4.76,4.76,0,0,0,1.64,0c.87-.11,1,1.6.09,1.71a4.89,4.89,0,0,1-2.77-.3c-.77-.38-1-1.35-1.13-2.29a2.7,2.7,0,0,1,.82-2.59,2.64,2.64,0,0,1,2.5-.12C91,301.61,90.76,303.28,89.9,303Z"/><path class="cls-8" d="M90.6,302.87a2,2,0,0,0-1.85-.11c-.85.23-1.31-1.4-.45-1.63a3.11,3.11,0,0,1,2.91.23C92,301.94,91.36,303.46,90.6,302.87Z"/><path class="cls-8" d="M90.79,303.25c-.45-.18-1.17-.37-1.57,0s-.29,1.28-.25,1.85c.07,1.1-1.29,1.18-1.36.08a4.23,4.23,0,0,1,.7-3.24,2.5,2.5,0,0,1,2.76-.39C91.9,301.91,91.64,303.58,90.79,303.25Z"/><path class="cls-9" d="M85.76,304.41a.89.89,0,0,0,1.18.42.85.85,0,0,0,.2-1.19.79.79,0,0,0-1.08-.44A.88.88,0,0,0,85.76,304.41Z"/><path class="cls-8" d="M39.26,315.67c-.25-1.36-.22-6.19.47-6.91s1.05,0,1.23.05c.48.06.49-.16.9.19a1.74,1.74,0,0,1,.35,1.61,42.52,42.52,0,0,1-1.71,5.33"/><path class="cls-8" d="M40.68,307a44.41,44.41,0,0,1,3.62-6.59c.67-.9,1.35-2.53,2.35-2.25.3.09.59.71.84.91a4.18,4.18,0,0,1,1.6,1.88c.31.92.49,1.13,0,1.92a46.48,46.48,0,0,1-4.66,4.65l-2,1.44-1.13-.76c-.1-1,.84-.13.18-.75"/><path class="cls-9" d="M45.07,299.2c-1,2.69,2.49,5,5.06,3.07.25-4.09,1.84-5.37,2.09-6.16-1.34,0-5.11-.33-7.15,3.09"/><rect class="cls-9" x="54.74" y="317.77" width="3.85" height="11.29"/><rect class="cls-9" x="62.43" y="317.77" width="3.85" height="11.29"/><rect class="cls-9" x="47.1" y="284.13" width="5.61" height="6.83" rx="2.8" ry="2.8"/><rect class="cls-9" x="66.69" y="283.88" width="5.61" height="6.83" rx="2.8" ry="2.8"/><rect class="cls-9" x="57.97" y="292.19" width="3.85" height="4.21"/><rect class="cls-8" x="49.2" y="280.28" width="21.38" height="13.67" rx="6.83" ry="6.83"/><rect class="cls-10" x="51.63" y="282.91" width="16.53" height="8.41" rx="4.21" ry="4.21"/><circle class="cls-11" cx="56.56" cy="287.11" r="1.93"/><circle class="cls-11" cx="63.22" cy="287.11" r="1.93"/><rect class="cls-8" x="49.4" y="296.04" width="21.38" height="23.18" rx="5.35" ry="5.35"/><rect class="cls-8" x="54.1" y="326.49" width="4.97" height="6.4" rx="2.48" ry="2.48"/><rect class="cls-8" x="61.92" y="326.58" width="4.97" height="6.4" rx="2.48" ry="2.48"/><ellipse class="cls-9" cx="41.19" cy="308.3" rx="1.41" ry="1.46" transform="translate(-255.83 215.98) rotate(-65.12)"/><path class="cls-4" d="M39.58,318.91a1.12,1.12,0,0,1,0-.88.63.63,0,0,0-.3-.93,1,1,0,0,0-1.18.24,2.35,2.35,0,0,0-.2,1.93C38.22,320.12,39.88,319.76,39.58,318.91Z"/><path class="cls-8" d="M39.28,319.4c-.16-.41-.42-.95-.22-1.38s.83-.39,1.37-.31.59.28.7.71a5,5,0,0,1,.11,1.63c-.07.88,1.64.88,1.71,0a4.89,4.89,0,0,0-.45-2.75,2.84,2.84,0,0,0-2.35-1,2.7,2.7,0,0,0-2.54,1,2.67,2.67,0,0,0,0,2.5C37.94,320.6,39.59,320.24,39.28,319.4Z"/><path class="cls-8" d="M39.18,320.1a2,2,0,0,1-.22-1.84c.18-.86-1.47-1.23-1.65-.36a3.12,3.12,0,0,0,.39,2.89C38.32,321.51,39.8,320.83,39.18,320.1Z"/><path class="cls-8" d="M39.56,320.27c-.2-.44-.43-1.15-.05-1.57s1.26-.36,1.83-.35c1.11,0,1.11-1.35,0-1.37a4.26,4.26,0,0,0-3.19.88,2.51,2.51,0,0,0-.24,2.77C38.28,321.45,39.94,321.1,39.56,320.27Z"/><path class="cls-9" d="M39.91,315.24a.85.85,0,0,1,.9.77c0,.41-.47.65-1,.63s-.89-.29-.88-.7A.86.86,0,0,1,39.91,315.24Z"/><path class="cls-9" d="M54.74,302.13a1.65,1.65,0,0,0-3.29,0v0h3.29Z"/><path class="cls-9" d="M57.48,300.53a1.64,1.64,0,0,0-1.64,1.63h3.28A1.65,1.65,0,0,0,57.48,300.53Z"/><path class="cls-9" d="M63.6,302.05a1.65,1.65,0,0,0-3.29,0,.41.41,0,0,0,0,.11h3.27A.41.41,0,0,0,63.6,302.05Z"/><path class="cls-12" d="M105.63,303.55c-.07,1.84-4,3.32-8.8,3.29s-8.62-1.53-8.55-3.38,4-3.31,8.8-3.29S105.7,301.71,105.63,303.55Z"/><path class="cls-13" d="M105.52,303.39c-.07,1.8-4,3.24-8.7,3.22s-8.53-1.5-8.46-3.3,4-3.24,8.71-3.22S105.59,301.59,105.52,303.39Z"/><path class="cls-8" d="M90.27,302.83c-.49-.2-1.28-.41-1.72,0s-.32,1.41-.28,2c.09,1.21-1.41,1.29-1.49.08s-.06-2.67.77-3.55a2.75,2.75,0,0,1,3-.42C91.49,301.36,91.2,303.19,90.27,302.83Z"/><path class="cls-12" d="M100.92,302.77c0,.88-1.92,1.59-4.23,1.58s-4.14-.74-4.1-1.62,1.92-1.6,4.23-1.58S101,301.88,100.92,302.77Z"/><path class="cls-8" d="M100.87,302.69c0,.87-1.91,1.56-4.18,1.55s-4.09-.72-4.06-1.59,1.9-1.55,4.18-1.54S100.9,301.83,100.87,302.69Z"/><path class="cls-14" d="M99.36,302.41c0,.54-1.18,1-2.59,1s-2.53-.45-2.51-1,1.18-1,2.59-1S99.38,301.88,99.36,302.41Z"/><path class="cls-15" d="M94.56,300.68h0l-.08-.05a.6.6,0,0,0-.19-.06l-.34,0a5.59,5.59,0,0,1-.71-.15c-.41-.11-1.2-.33-1.38-.68a.44.44,0,0,1,.54-.6c.22,0,.41.25.64.31.83.21.31-.76,0-1a1.57,1.57,0,0,0-1.09-.09,1,1,0,0,0-.8,1.53A2.52,2.52,0,0,0,92.67,301a4.93,4.93,0,0,0,.94.21,1.47,1.47,0,0,0,1-.05A.23.23,0,0,0,94.56,300.68Z"/><path class="cls-16" d="M92.85,300.27a.48.48,0,0,1,0,.29l-.06.1a.85.85,0,0,1-.38.1,1.5,1.5,0,0,1-.45-.09,4.3,4.3,0,0,0,.7.29,6.51,6.51,0,0,0,.92.21,1.27,1.27,0,0,0-.26-.72l0-.05-.06,0Z"/><path class="cls-17" d="M92,299.87a.64.64,0,0,1-.13-.17.44.44,0,0,1,.54-.6c.22,0,.41.25.64.31.07,0,.25.06.31,0s0-.12,0-.18a2.62,2.62,0,0,0-.19-.58c-.07-.13-.16-.44-.4-.43s-.22.22-.23.34,0,.21-.15.26-.24,0-.35,0a.55.55,0,0,0-.38.44A.59.59,0,0,0,92,299.87Z"/><path class="cls-15" d="M101,298.07a1.57,1.57,0,0,0-.63-.74,4.36,4.36,0,0,0-1.41-.48,11,11,0,0,0-3.28-.16,4.77,4.77,0,0,0-2.5.73,1.49,1.49,0,0,0-.54,1,1.63,1.63,0,0,0,.06.66c.07.3.15.58.22.87a3.83,3.83,0,0,0,2,2.82,4.56,4.56,0,0,0,3.84,0,3.19,3.19,0,0,0,1.24-.94,5.38,5.38,0,0,0,.63-1.15A4,4,0,0,0,101,298.07Z"/><path class="cls-18" d="M100.6,300.54c.09-.22.18-.46.26-.71a7.35,7.35,0,0,1-8-.08,1.21,1.21,0,0,1,.05.18,4.84,4.84,0,0,0,.14.51A7.3,7.3,0,0,0,100.6,300.54Z"/><path class="cls-18" d="M92.29,298.54a.94.94,0,0,0-1,.48.92.92,0,0,0,0,.59.76.76,0,0,0,.33.5.11.11,0,0,0,.15-.08c0-.13-.12-.26-.17-.38a.67.67,0,0,1,0-.52.59.59,0,0,1,.4-.35,1.51,1.51,0,0,0,.39-.15S92.34,298.55,92.29,298.54Z"/><path class="cls-19" d="M98.85,299.68a4.32,4.32,0,0,0,2-.87s-.44,3.87-3.57,4.1A5,5,0,0,0,98.85,299.68Z"/><path class="cls-20" d="M92.93,298.34s.25-.2.27-.23.13-.15.32-.25a3.08,3.08,0,0,1,.81-.23,13.76,13.76,0,0,1,2.07-.29,12.22,12.22,0,0,1,2.35.14,8.29,8.29,0,0,1,1.19.28,2.09,2.09,0,0,1,.48.19.28.28,0,0,1,.15.25c0,.07.22.17.28.1s.56-1.43-3.88-1.43S92.87,298.23,92.93,298.34Z"/><path class="cls-21" d="M100.66,298.17c-.23.48-1.18.69-1.77.95l0,0a4.75,4.75,0,0,0,.54-.14,3.67,3.67,0,0,0,1.26-.57c.3-.26.22-.5,0-.7A.44.44,0,0,1,100.66,298.17Z"/><path class="cls-22" d="M100.86,298.19c0,.64-1.77,1.16-4,1.16s-4-.52-4-1.16,1.77-1.17,4-1.17S100.86,297.54,100.86,298.19Z"/><path id="_Clipping_Path_2" data-name="&lt;Clipping Path&gt;" class="cls-1" d="M100.86,298.19c0,.64-1.77,1.16-4,1.16s-4-.52-4-1.16,1.77-1.17,4-1.17S100.86,297.54,100.86,298.19Z"/><g class="cls-23"><path class="cls-22" d="M93.55,297.5a4.22,4.22,0,0,1,1-.31,13.33,13.33,0,0,1,2.2-.2,14.84,14.84,0,0,1,2.68.2c.66.11,1.43.36,1.55.8s-.36.75-.94,1a9.62,9.62,0,0,1-3.64.5,7.32,7.32,0,0,1-2-.33,3.62,3.62,0,0,1-1.29-.63C92.68,298.12,93,297.75,93.55,297.5Z"/><path class="cls-24" d="M96.81,299.05h-.48a6.93,6.93,0,0,1-1.9-.34,3.41,3.41,0,0,1-1.19-.6.32.32,0,0,1-.09-.11,1.08,1.08,0,0,1,.46-.36,3.6,3.6,0,0,1,.91-.3,10.92,10.92,0,0,1,2.15-.2h.17a13.5,13.5,0,0,1,2.47.2c.89.16,1.28.45,1.32.6s-.19.37-.76.6A8.4,8.4,0,0,1,96.81,299.05Z"/><path class="cls-25" d="M96.8,299.14l-.53,0a6.32,6.32,0,0,1-2.15-.36c-.38-.16-.84-.19-1.07-.75a1.58,1.58,0,0,1,.22-.16,3.68,3.68,0,0,1,1-.41,10.45,10.45,0,0,1,2.4-.29h.19a12.46,12.46,0,0,1,2.76.28,2.69,2.69,0,0,1,1.22.55,2,2,0,0,1-.59.56A7.81,7.81,0,0,1,96.8,299.14Z"/><path class="cls-26" d="M96.72,299.31a4.61,4.61,0,0,1-.53,0,6.82,6.82,0,0,1-2.09-.49,2.84,2.84,0,0,1-.52-.24c-.13-.07-.43-.27-.34-.49s.57-.32.73-.36a9.37,9.37,0,0,1,1.9-.37l.69,0h.2a10.89,10.89,0,0,1,2.48.27,5.39,5.39,0,0,1,.66.18c.13,0,.6.15.57.38s-.21.28-.32.35A6.83,6.83,0,0,1,96.72,299.31Z"/></g><path class="cls-27" d="M93.72,297.5a1.94,1.94,0,0,0-.62.36l0,0A3.45,3.45,0,0,1,93.72,297.5Z"/><path class="cls-27" d="M100.33,297.6a1.5,1.5,0,0,1,.29.18v0Z"/><path class="cls-15" d="M96.85,296.77c-2.26,0-4.08.57-4.08,1.28,0,.89,1.82,1.38,4.08,1.38s4.08-.3,4.08-1.38C100.93,297.34,99.1,296.77,96.85,296.77Zm0,2.28c-2.07,0-3.74-.49-3.74-1.09s1.67-1.08,3.74-1.08,3.74.49,3.74,1.08S98.91,299.05,96.85,299.05Z"/><path class="cls-28" d="M96.25,299.16v0c-.07.11-.45,0-.55,0-.39-.05-.76-.09-1.14-.17q-.28-.06-.57-.15c-.73-.22-1.14-.53-1.14-.83s.28-.5.78-.71c-.38.18-.58.4-.58.62s.4.62,1.14.84a9.72,9.72,0,0,0,1.78.29C96,299.09,96.27,299.08,96.25,299.16Z"/><path class="cls-19" d="M100,298.11c0,.31-1,.57-2.2.57s-.69-.52-.41-.57c1.47-.32-.8-.58.41-.58S100,297.91,100,298.11Z"/><path class="cls-28" d="M98.22,299.06a1.28,1.28,0,0,0-.4.09c-.07.07.23.15.89,0a3.45,3.45,0,0,0,1.56-.56c.17-.21-.12-.05-.5.11A11.11,11.11,0,0,1,98.22,299.06Z"/><g class="cls-29"><path class="cls-8" d="M95.55,291.52s1.37.94.74,2.1a2.37,2.37,0,0,0,0,2.22,1.77,1.77,0,0,1-.06-.69,3.23,3.23,0,0,1,.3-1.26,2.85,2.85,0,0,0,.34-.81c0-.51-.38-.89-.76-1.18Z"/><path class="cls-8" d="M97,292.31s.6.6.19,1.19a1.15,1.15,0,0,0,0,1.18.92.92,0,0,1,0-.37,1.92,1.92,0,0,1,.23-.66,1.27,1.27,0,0,0,.24-.42c.06-.27-.15-.5-.35-.68Z"/><path class="cls-8" d="M96.93,293.59a3,3,0,0,0-.13,2.2,1,1,0,0,1-.07,1.26.85.85,0,0,0,.37-1.23A3.25,3.25,0,0,1,96.93,293.59Z"/></g><path class="cls-30" d="M96.39,295.91s.44.36.14.71a.56.56,0,0,0,0,.7.41.41,0,0,1,0-.22.87.87,0,0,1,.18-.39,1,1,0,0,0,.17-.25c0-.16-.12-.3-.26-.4Z"/><path class="cls-31" d="M229,298.86c1.84-1.48,2.78-3.71,4.28-5.49a.49.49,0,0,1,.35-.17.64.64,0,0,1,1.14.35c0,.11.17.26.32.39a.59.59,0,0,1,.29.4,1.42,1.42,0,0,1,.1.72,8.47,8.47,0,0,1-.57,2.06,2.84,2.84,0,0,1-.52,1.43c-.38.55-1.35.23-1.13-.48l.09-.29c-.35.34-.7.7-1.08,1-.11.1-.22.2-.34.29a2.66,2.66,0,0,1-2,.73l-.36.07C229.05,300,228.45,299.29,229,298.86Z"/><path class="cls-32" d="M239,273.11c-.25.54-5.71,5-9.89,9.2a81.12,81.12,0,0,1,6.58,12.08,13.77,13.77,0,0,1-3.76.42c-.25-.06-7.6-11.89-8-12.94a36.91,36.91,0,0,1,2.36-3.79c3.09-4,10.09-10.87,14.54-11.13a20.47,20.47,0,0,1-1.6,6.27"/><path class="cls-33" d="M261.23,344.76l.08.44c-3.38.12-7.25,0-10.61-.11v-.52h10.54C261.24,344.64,261.23,344.7,261.23,344.76Z"/><path class="cls-8" d="M261.22,344a5.33,5.33,0,0,1,0,.56H250.7V344Z"/><path class="cls-33" d="M251,338.07a1.07,1.07,0,0,1,.33-.85,1,1,0,0,1,.63-.13,6,6,0,0,1,2.13.45,8.89,8.89,0,0,0,.49,2.44,1.65,1.65,0,0,0,.53.52,4.32,4.32,0,0,0-1.37,1.15c-.12.15.09.36.21.21a4,4,0,0,1,1.48-1.18,4.9,4.9,0,0,0,.67.26,4.08,4.08,0,0,0-1.28,1.1c-.12.15.09.36.21.21a4,4,0,0,1,1.51-1.19l.55.11a4.1,4.1,0,0,0-1.1,1c-.12.15.09.36.21.21a4,4,0,0,1,1.36-1.12l.85.09a2.67,2.67,0,0,1,2.39,1.19,2.88,2.88,0,0,1,.47,1.49H250.7Q250.72,341,251,338.07Z"/><path class="cls-8" d="M255,342.25c-.12.15-.33-.06-.21-.21a4.08,4.08,0,0,1,1.28-1.1l.44.12A4,4,0,0,0,255,342.25Z"/><path class="cls-8" d="M253.9,341.86c-.12.15-.33-.06-.21-.21a4.32,4.32,0,0,1,1.37-1.15,2,2,0,0,0,.32.18A4,4,0,0,0,253.9,341.86Z"/><path class="cls-8" d="M256.15,342.36c-.12.15-.33-.06-.21-.21a4.1,4.1,0,0,1,1.1-1l.47.07A4,4,0,0,0,256.15,342.36Z"/><path class="cls-31" d="M275,269.59c-2,1.76-2.95,2.76-5.57,3.39-.77.19-3.37.06-4.14.25a2,2,0,0,1,.07-1.55c.13-.18,0-.84.16-1,2.68-1.67,6.64,0,9.57-1.2"/><path class="cls-32" d="M266,274.22c-.05-.94-.42-2.56-.47-3.5-3.4,1.44-8.89,4.95-12.76,7.32,0,0,1.54-8.2-1.1-9-.11,0-3.46,11.5-3.48,11.62a.47.47,0,0,0,.14.36l2.21,2.68c3-1.53,4.94-3.05,7.88-4.73s6.18-3.71,7.62-4.74"/><path class="cls-34" d="M262.57,269.27c.07,1.81,3.95,3.26,8.67,3.24s8.49-1.51,8.43-3.33-3.95-3.27-8.67-3.24S262.51,267.45,262.57,269.27Z"/><path class="cls-8" d="M262.68,269.11c.07,1.77,3.91,3.19,8.58,3.17s8.39-1.48,8.32-3.25-3.9-3.2-8.57-3.17S262.62,267.34,262.68,269.11Z"/><g class="cls-29"><path class="cls-8" d="M272.45,255.27s-1.32.73-.71,1.64a1.52,1.52,0,0,1,0,1.72,1,1,0,0,0,.05-.53,2.21,2.21,0,0,0-.28-1,1.69,1.69,0,0,1-.34-.63c-.05-.39.37-.69.74-.91Q272.18,255.41,272.45,255.27Z"/><path class="cls-8" d="M271,255.89s-.58.46-.19.92a.73.73,0,0,1,.05.92.48.48,0,0,0,0-.29,1.11,1.11,0,0,0-.22-.51c-.08-.11-.2-.21-.23-.33s.15-.39.34-.53Z"/><path class="cls-8" d="M271.71,258.75s-.42.33-.13.66a.53.53,0,0,1,0,.66c0-.05,0-.15,0-.2a.84.84,0,0,0-.16-.38.6.6,0,0,1-.16-.23c0-.15.11-.28.24-.38Z"/><path class="cls-8" d="M271.12,256.88s.58,1.07.13,1.72a.68.68,0,0,0,.06,1,.63.63,0,0,1-.35-1A2.13,2.13,0,0,0,271.12,256.88Z"/></g><path class="cls-12" d="M267.57,268.77c0,.76,1.64,1.36,3.6,1.35s3.52-.63,3.49-1.38-1.64-1.36-3.6-1.35S267.54,268,267.57,268.77Z"/><path class="cls-35" d="M267.62,268.71c0,.73,1.62,1.32,3.55,1.31s3.48-.61,3.46-1.35-1.62-1.32-3.56-1.31S267.59,268,267.62,268.71Z"/><path class="cls-14" d="M268.9,268.47c0,.45,1,.82,2.2.81s2.15-.38,2.14-.83-1-.82-2.2-.82S268.88,268,268.9,268.47Z"/><path class="cls-36" d="M273,264.5h0l.07-.05a.47.47,0,0,1,.16,0l.29,0a5.79,5.79,0,0,0,.6-.12c.35-.1,1-.28,1.18-.58a.37.37,0,0,0-.46-.51c-.19,0-.35.2-.55.25-.7.19-.26-.64,0-.8a1.32,1.32,0,0,1,.92-.08.89.89,0,0,1,.68,1.3,2.09,2.09,0,0,1-1.3.9,4.06,4.06,0,0,1-.8.19,1.31,1.31,0,0,1-.81,0A.2.2,0,0,1,273,264.5Z"/><path class="cls-16" d="M274.43,264.15a.39.39,0,0,0,0,.24.19.19,0,0,0,.05.09.8.8,0,0,0,.32.09,1.72,1.72,0,0,0,.38-.08,3,3,0,0,1-.59.24,4.94,4.94,0,0,1-.78.19,1,1,0,0,1,.22-.62l0,0h0Z"/><path class="cls-17" d="M275.17,263.81a1.34,1.34,0,0,0,.11-.14.37.37,0,0,0-.46-.51c-.19,0-.35.2-.55.25,0,0-.21.06-.26,0s0-.11,0-.15a2.24,2.24,0,0,1,.16-.5c.05-.11.13-.37.34-.36s.19.18.19.28,0,.18.14.22.19,0,.29,0a.46.46,0,0,1,.32.37A.49.49,0,0,1,275.17,263.81Z"/><path class="cls-36" d="M269,268.37l-.45-1.74c-.29-1-.61-1.82-.83-2.77-.06-.24-.13-.49-.19-.74a1.52,1.52,0,0,1-.05-.56,1.22,1.22,0,0,1,.46-.83,4,4,0,0,1,2.13-.63c.33,0,.67-.05,1-.05s.67,0,1,.05a4,4,0,0,1,2.13.63,1.26,1.26,0,0,1,.46.83,1.34,1.34,0,0,1-.06.56c-.05.25-.12.5-.18.74-.22.95-.54,1.74-.84,2.77l-.45,1.74s-.35.71-2,.71C271.12,269.08,269.26,269.09,269,268.37Z"/><path class="cls-37" d="M274.91,262.68a.79.79,0,0,1,.87.4.82.82,0,0,1,0,.51.65.65,0,0,1-.27.42c-.06,0-.14,0-.14-.06s.11-.22.15-.33a.61.61,0,0,0,0-.44.51.51,0,0,0-.34-.3,1.26,1.26,0,0,1-.34-.13S274.87,262.68,274.91,262.68Z"/><path class="cls-38" d="M274.39,262.18c0,.08.12.2.09.27s-.2-.05-.21-.08a.58.58,0,0,0-.28-.31,2.51,2.51,0,0,0-.67-.19,11.29,11.29,0,0,0-1.76-.15,10.14,10.14,0,0,0-2,.12,6.09,6.09,0,0,0-1,.23,2.19,2.19,0,0,0-.41.17.2.2,0,0,0-.12.21c0,.06-.21.09-.27,0s-.4-1.29,3.55-1.29C271.32,261.19,274.22,261.3,274.39,262.18Z"/><path class="cls-39" d="M274.33,262.13a.43.43,0,0,1,.08.3s-.19-.05-.2-.08a.64.64,0,0,0-.28-.34,2.51,2.51,0,0,0-.67-.22,10.91,10.91,0,0,0-1.73-.16,9.29,9.29,0,0,0-2,.13,6,6,0,0,0-1,.26,1.85,1.85,0,0,0-.4.18.27.27,0,0,0-.13.24c0,.05-.2.09-.26,0s-.21-1.1,3.52-1.1C271.29,261.37,273.72,261.4,274.33,262.13Z"/><path class="cls-40" d="M268.36,261.84a3.06,3.06,0,0,1,.78-.24,9.08,9.08,0,0,1,1.74-.16,11.39,11.39,0,0,1,2.12.15c.52.09,1.13.29,1.23.64s-.29.6-.75.78a7.51,7.51,0,0,1-2.88.39,5.66,5.66,0,0,1-1.56-.26,3,3,0,0,1-1-.5C267.68,262.33,267.94,262,268.36,261.84Z"/><path class="cls-41" d="M268.37,261.66a3.61,3.61,0,0,1,.77-.24,9.08,9.08,0,0,1,1.74-.16,12.31,12.31,0,0,1,2.12.15c.52.09,1.13.29,1.23.64s-.29.6-.75.78a7.32,7.32,0,0,1-2.88.39A5.66,5.66,0,0,1,269,263a3,3,0,0,1-1-.5C267.68,262.15,268,261.86,268.37,261.66Z"/><path class="cls-42" d="M268,262.41c.19.42,1,.6,1.43.82l0,0a3.31,3.31,0,0,1-.45-.12,3,3,0,0,1-1-.5.36.36,0,0,1,0-.61A.46.46,0,0,0,268,262.41Z"/><path class="cls-43" d="M273.48,263a7.45,7.45,0,0,1-2.67.4l.9-.1a4.64,4.64,0,0,0,1.81-.56c.29-.19.43-.65-.22-.94a6.36,6.36,0,0,0-1.77-.36l0,0a12.62,12.62,0,0,1,1.52.15c.53.09,1.12.3,1.22.65S273.94,262.83,273.48,263Z"/><path class="cls-44" d="M268.36,261.74a3.65,3.65,0,0,1,.8-.22,10.75,10.75,0,0,1,1.8-.13,13.75,13.75,0,0,1,2.24.14c.54.08,1.14.25,1.25.57s-.31.53-.78.69a8.81,8.81,0,0,1-3,.36,6.39,6.39,0,0,1-1.62-.24,3.35,3.35,0,0,1-1.06-.44C267.64,262.19,267.92,261.92,268.36,261.74Z"/><path class="cls-21" d="M267.81,262.47c.2.37,1,.54,1.51.74l0,0a3.57,3.57,0,0,1-.47-.11,3.48,3.48,0,0,1-1.08-.44c-.25-.2-.18-.39,0-.55A.35.35,0,0,0,267.81,262.47Z"/><path class="cls-45" d="M267.58,262.3c0,.75,1.55,1.12,3.47,1.12s3.47-.38,3.47-1.08-1.55-1.2-3.47-1.2S267.58,261.69,267.58,262.3Zm.29-.12c0-.52,1.43-.95,3.18-.95s3.18.43,3.18.95-1.42.94-3.18.94S267.87,262.7,267.87,262.18Z"/><path class="cls-46" d="M271.56,263.22v0c.06.1.38,0,.47,0a7.81,7.81,0,0,0,1-.14l.48-.13c.62-.2,1-.46,1-.73s-.23-.43-.66-.61c.32.15.49.34.49.54s-.34.54-1,.72a7,7,0,0,1-1.51.26S271.55,263.15,271.56,263.22Z"/><path class="cls-46" d="M270,263.16a1.12,1.12,0,0,1,.35.07c.06,0-.2.11-.76,0a3.41,3.41,0,0,1-1.36-.43c-.15-.16.11,0,.44.08A10.84,10.84,0,0,0,270,263.16Z"/><path class="cls-47" d="M271.56,263.88s-2.55.22-3.77-.59l1.36,4.21A3,3,0,0,1,271.56,263.88Z"/><path class="cls-31" d="M251.19,251.48c1.71,1.44.91,3.31.94,4.14,0,1,1.57,2.43,1.7,2.84s-.41.81-.79,1.19a2.77,2.77,0,0,0-.45,1.2,10.33,10.33,0,0,0-.09,2.31c.11.85-.38,1.16-1,1.44-1.43.63-3.46-.61-4-.06s-.32,3.65,1.35,3.51c1.9-.16-2.49,5.77-4.28,6.45a6,6,0,0,1-5.48-.67,3.85,3.85,0,0,1-1.56-1.93,3.6,3.6,0,0,1-.14-1.14c.07-2.2,2.49-2.7,3.9-4.36s.26-5-.29-7.08c-.28-1.08.71-2.36,1.36-3.25a1.6,1.6,0,0,1,2.1-.23c.66.41.33-.21.73.48-.81-3.77-.11-5.2,2.91-7.47"/><path class="cls-33" d="M250.83,248.09l2.16,1.39c-.2.35-.41.69-.64,1a2.58,2.58,0,0,1-1.15,1.07,2.71,2.71,0,0,1-1.17.08,3.65,3.65,0,0,0-2.95.68,4.21,4.21,0,0,0-.84,2.43,34.93,34.93,0,0,1-.69,3.53,6.78,6.78,0,0,0-1.17-1.6.69.69,0,0,0-.28-.2.7.7,0,0,0-.55.14,2.52,2.52,0,0,0-1.34,2.34c0,.25.14.49.16.75a3.68,3.68,0,0,1-.26,1.15,9.08,9.08,0,0,0-.14,2.59,7.35,7.35,0,0,1-1.7-1.53c-.25-.54-.66-1-1-1.52a9.32,9.32,0,0,1-.91-3.56,7.32,7.32,0,0,1-.05-1.87,2.52,2.52,0,0,1,.8-1.63,3,3,0,0,1-.44-2.44,2.55,2.55,0,0,1,.52-.7,8.58,8.58,0,0,1,4.19-2.14,24.81,24.81,0,0,1,4.71-.45,7.25,7.25,0,0,1,3.44.44"/><path class="cls-33" d="M250.66,255.67c0,.11,0,.23,0,.35l-.23-.08a.92.92,0,0,0,0-.52l.24,0a2.46,2.46,0,0,1-.07.77.12.12,0,0,1-.18.08l-.47-.24c-.12-.06,0-.26.06-.26a.48.48,0,0,0,.45-.32l0,.17-.41.36a1.23,1.23,0,0,1-.49.16c-.13,0-.16-.24,0-.28a.76.76,0,0,0,.48-.33l.12.23a1.06,1.06,0,0,0-.55.25l-.06-.26.69,0c.13,0,.15.22,0,.27a.92.92,0,0,1-.76,0c-.14-.07-.08-.34.06-.27a.73.73,0,0,0,.63,0l0,.28-.69,0c-.13,0-.16-.18-.06-.26a1.28,1.28,0,0,1,.6-.28.14.14,0,0,1,.12.23,1,1,0,0,1-.59.41l0-.27a1.16,1.16,0,0,0,.7-.41c.12-.11.25-.15.37,0a.15.15,0,0,1,0,.16.74.74,0,0,1-.66.46l.06-.26.47.24-.17.08a2,2,0,0,0,.06-.69.12.12,0,0,1,.23,0,1.27,1.27,0,0,1,0,.67c0,.17-.26.09-.23-.08s0-.23.05-.35S250.69,255.49,250.66,255.67Z"/><path class="cls-33" d="M250.71,255.36l-.12.77a.14.14,0,0,1-.12.11c-.27,0-.76.05-1-.2a.37.37,0,0,1,.09-.56c.15-.08.31,0,.47-.06s.26-.18.43-.16a.55.55,0,0,1,.41.59l-.24,0a.41.41,0,0,0,0-.27h.23l-.09.65a.12.12,0,0,1-.12.1l-.75-.08c-.15,0-.16-.29,0-.27l.75.08-.11.1.09-.65a.12.12,0,0,1,.23,0,.71.71,0,0,1,0,.41.12.12,0,0,1-.23,0c0-.17-.11-.34-.27-.31a.59.59,0,0,0-.17.1.75.75,0,0,1-.33.07c-.07,0-.26,0-.19.15s.2.06.24.06l.55,0-.11.1.12-.77C250.5,255.11,250.73,255.19,250.71,255.36Z"/><polygon class="cls-48" points="252.62 260.51 252.44 262.34 251.48 262.57 250.56 262.01 250.09 261.23 250.07 260.45 250.09 260.06 250.43 259.82 251.35 260 252.62 260.51"/><path class="cls-49" d="M250.42,260.83h0a2.64,2.64,0,0,0,1,.34,9.43,9.43,0,0,0,1.06.2c.05,0,.05.09,0,.09h0c-.37,0-.73-.13-1.09-.21a2.86,2.86,0,0,1-1-.34s0-.08,0-.08"/><path class="cls-33" d="M244.16,260c0-.2-.07-.4-.11-.59s.36-.4.41-.12l.15.8a.18.18,0,0,1,.2.15c.07.34.15.67.23,1a5.28,5.28,0,0,0,.36.76.18.18,0,0,1,.19.11,1,1,0,0,0,.85.66.22.22,0,0,1,.14.08l.67,0c.52-.06,1-.16,1.54-.27l0-.17a.75.75,0,0,1,0-.7.51.51,0,0,1,.14-.15s0-.05,0-.13,0,0,0,0a.52.52,0,0,1,0-.25l.13-.64a.35.35,0,0,1,.15-.23c0-.22.05-.46.29-.5l.23,0,.21,0a.58.58,0,0,1,.52-.23h.05c.42-.25.91.19,1.44.17a1.15,1.15,0,0,1,.79.58c0,.05,0-.08,0,0a1.07,1.07,0,0,1-.05.71,4,4,0,0,1-1-.16s-.68-.18-.72-.17c-.29.06-.39-.25-.68-.17a1.91,1.91,0,0,0,.61,1.3c.07.05,1.39.37,1.52.48.4.32.55,2.23,0,2.55.06.11-.08.19-.16.33a1,1,0,0,1-.76.54.53.53,0,0,1-.25,0,.38.38,0,0,1-.19.05h-.34l-.44,0a2.41,2.41,0,0,1-.48-.08.38.38,0,0,1-.17-.08,12.7,12.7,0,0,1-3.17-.61.18.18,0,0,1-.18,0,2.37,2.37,0,0,1-.7-.27.39.39,0,0,1-.2-.13,4.83,4.83,0,0,1-1.16-2.81.17.17,0,0,1,.08-.17l-.06-.3,0-.18a.17.17,0,0,1-.07-.14l-.07-.75a.2.2,0,0,1,0-.11Z"/><path class="cls-50" d="M252.35,270a1.34,1.34,0,0,0-.28-.86,3.14,3.14,0,0,0-1.11-.69,15.21,15.21,0,0,1-1.52-.66c-.79-.45-1-.37-1-.37a10.38,10.38,0,0,1-3.13.49c-5.28-.66-4.3-1-4.45-1a9.8,9.8,0,0,0-2.09.49c-2.38.74-3.06,1.7-3.13,2-1.17,4.65-.13,17.31,1.14,22,0,.06-.11.74,0,.78s2.67,0,2.75,0c3.14.22,4.16,0,7.32,0a9.58,9.58,0,0,0,3.24-.35c.71-6.28,1.88-16,2.28-20.89"/><path class="cls-8" d="M241.86,265.17,240.32,267l3.42,4.33,1.69-3,2.8,2.8.66-3.57-1.48-1.92s.06,1.56-1.87,1.81S241.86,265.17,241.86,265.17Z"/><path class="cls-33" d="M242.12,344.76l.07.44c-3.38.12-7.24,0-10.6-.11v-.52h10.53Z"/><path class="cls-8" d="M242.11,344c0,.19,0,.38,0,.56H231.59V344Z"/><path class="cls-33" d="M231.83,338.07a1.15,1.15,0,0,1,.33-.85,1,1,0,0,1,.64-.13,6,6,0,0,1,2.13.45,8.21,8.21,0,0,0,.49,2.44,1.55,1.55,0,0,0,.53.52,4.21,4.21,0,0,0-1.37,1.15c-.12.15.09.36.21.21a4,4,0,0,1,1.48-1.18,4.44,4.44,0,0,0,.67.26,4.11,4.11,0,0,0-1.29,1.1c-.11.15.1.36.21.21a4,4,0,0,1,1.52-1.19l.55.11a4.14,4.14,0,0,0-1.11,1c-.12.15.09.36.21.21a3.91,3.91,0,0,1,1.37-1.12l.85.09a2.64,2.64,0,0,1,2.38,1.19,2.8,2.8,0,0,1,.48,1.49H231.59Q231.59,341,231.83,338.07Z"/><path class="cls-8" d="M235.86,342.25c-.11.15-.32-.06-.21-.21a4.11,4.11,0,0,1,1.29-1.1l.44.12A4,4,0,0,0,235.86,342.25Z"/><path class="cls-8" d="M234.79,341.86c-.12.15-.33-.06-.21-.21A4.21,4.21,0,0,1,236,340.5a1.65,1.65,0,0,0,.32.18A4,4,0,0,0,234.79,341.86Z"/><path class="cls-8" d="M237,342.36c-.12.15-.33-.06-.21-.21a4.14,4.14,0,0,1,1.11-1l.47.07A3.91,3.91,0,0,0,237,342.36Z"/><path class="cls-32" d="M250.06,291.7c2.75,5,3,12.65,4.68,18.17a21.15,21.15,0,0,1,.81,3.32,25.51,25.51,0,0,1,.16,3.81l-.07,6.74c-.06,5.35-.24,11.16-.36,15.32a27.21,27.21,0,0,0-5.34.13c-.1-7.36-.32-15.27.06-22.62,0,0-5.77-14.27-6.07-14.57l-1.33,0-1.43,15.5-5,21.86-5.21-.14,2.8-19.79.76-4.15a37.29,37.29,0,0,1-.06-4.08c.12-1,.12-3.81.12-3.81s0-2.17.13-5.32c.4-7.84,2-10.75,2-10.75Z"/><line class="cls-51" x1="56.5" y1="24.33" x2="56.5" y2="214"/><line class="cls-51" x1="26" y1="184.69" x2="356.5" y2="184.69"/><text class="cls-52" transform="translate(34.63 31.52)">I</text><text class="cls-52" transform="translate(32.37 45)">N</text><text class="cls-52" transform="translate(33.59 58.48)">T</text><text class="cls-52" transform="translate(33.68 70.83)">E</text><text class="cls-52" transform="translate(34.37 96.17)">L</text><text class="cls-52" transform="translate(35.18 109.08)">I</text><text class="cls-52" transform="translate(32.72 120.98)">G</text><text class="cls-52" transform="translate(33.68 133.13)">E</text><text class="cls-53" transform="translate(33.05 146.22) rotate(-0.72)">N</text><text class="cls-52" transform="translate(32.76 160.12)">C</text><text class="cls-52" transform="translate(33.61 174.28)">E</text><text class="cls-52" transform="translate(325.33 206.87)">T</text><text class="cls-52" transform="translate(349.99 206.92)">E</text><text class="cls-52" transform="translate(339.15 206.92)">M</text><text class="cls-52" transform="translate(333.8 206.87)">I</text><text class="cls-54" transform="translate(151.99 210.43)">1950</text><text class="cls-54" transform="translate(240.99 210.43)">2048</text><line class="cls-55" x1="259.5" y1="176" x2="259.5" y2="193.36"/><path class="cls-56" d="M56.67,184.33S198.33,166.67,355,119"/><path class="cls-57" d="M321,27.33C313,60,287.33,168,171,184.67"/><line class="cls-55" x1="171.5" y1="176" x2="171.5" y2="193.36"/><text class="cls-58" transform="translate(78.46 156.94)">Human</text><text class="cls-59" transform="translate(264.55 168.55)"><tspan class="cls-60">M</tspan><tspan x="16.82" y="0">achine</tspan></text><text class="cls-61" transform="translate(151.13 130.26)">SINGULARI<tspan class="cls-62" x="91.89" y="0">T</tspan><tspan x="102.5" y="0">Y</tspan></text><line class="cls-63" x1="223.5" y1="215.33" x2="223" y2="216.33"/><path class="cls-64" d="M153.21,271.58c-1-.22-5.84,1.43-6.61-.1-.95-1.91.58-5.34.87-7.26a1.83,1.83,0,0,0-1.74-2.14,1.86,1.86,0,0,0-3,1.22c-.26,2.37.47,7.7-.4,8.75-1.14,1.41-4.53,2-5.93,3.16s.16,2.27,1.76,1.67a1.4,1.4,0,0,0,.58.26c1.88.32,6.51.91,9.2-.17a4,4,0,0,0,.89.14,1.52,1.52,0,0,0,1.61-1.24l.45.09c1.51.27,3.36-.32,3.36-2.21C154.21,272.08,154.62,271.87,153.21,271.58Z"/><rect class="cls-65" x="113.66" y="327.5" width="4.98" height="2.56"/><rect class="cls-66" x="114.6" y="316.86" width="49.58" height="11.69"/><rect class="cls-67" x="117.98" y="278.12" width="41.11" height="35.32" rx="12" ry="12"/><path class="cls-67" d="M120.2,328.56l.2-21s-1.33-7.06-8.49-3.41c-7.76,4.87.24,14.61.24,14.61l0,9.74Z"/><rect class="cls-65" x="157.93" y="327.53" width="4.98" height="2.56" transform="translate(320.85 657.61) rotate(-180)"/><path class="cls-67" d="M156.38,328.59l-.21-21s1.34-7.06,8.49-3.41c7.76,4.88-.24,14.62-.24,14.62l0,9.73Z"/><rect class="cls-68" x="115.53" y="307.11" width="45.3" height="11.2" rx="4.8" ry="4.8"/><path class="cls-64" d="M122.09,330.93c-.3-1.22-.73-3.47-1-4.68-.6-2.32-1.11-3.71-1.61-6.05s-1.12-3.66-1.77-5.95-1.29-5.08-1.78-6.68-.28-5.22.37-5.93c1.12-2.5,18.93-2.16,24.72-4.4-.15.14,5,5.86,2.51,8.91-4.07,5-22.47-3.28-22.94-.61-.18,1,1.41,3.37,1.83,4a11.59,11.59,0,0,1,1.48,4c.72,2.87,0,9.88.37,14.19a6.68,6.68,0,0,0,.62,1.65,8.34,8.34,0,0,0,1.23,1.11l1.57,4.29-.47,3s-1.13,1.05-1.56.94A30.42,30.42,0,0,1,122.09,330.93Z"/><path class="cls-10" d="M125.7,330.18c.92.37,1.14-.24,2-.16,1.92.12,2.11,1.47,2.68,2.84.22.6,1.76,3.63,2.11,4.67,0,.05-.22.17-.33.25-.81-.94-1.12-2.23-2-3.22-.62-.7-1-.59-1.55.5a2.6,2.6,0,0,0-.12,2.13,15.58,15.58,0,0,0,.6,1.61c.34.89.34.89-.68,1.41-.59.33-6.13,2.88-4.81.47.63-1.15,3.15-2.31,3.17-3.1C127.83,331.8,125.09,330,125.7,330.18Z"/><path class="cls-69" d="M130.35,323.48c-.55-1.15-1.44-3.27-2-4.41-1.07-2.16-5.13-8.59-6.25-10.71s-1.77-4.67-2.59-6.16-1.49-5.58-1-6.4c2.29-4.42,26.44,1.56,28.29,3.45-.12.16,4.89,1.62,3.09,5.06-2.95,5.63-26.46-8.16-26.36-5.46,0,1,2.08,3,2.64,3.62a12.21,12.21,0,0,1,2.29,3.67c1.31,2.68,2.08,9.69,3.33,13.85a6.92,6.92,0,0,0,.95,1.5,8,8,0,0,0,1.44.88l2.44,3.92.17,3s-.89,1.23-1.34,1.2A31.5,31.5,0,0,1,130.35,323.48Z"/><path class="cls-10" d="M133.73,322.09c1,.19,1.07-.44,1.93-.52,1.9-.23,2.37,1.06,3.21,2.3.34.55,2.48,3.24,3,4.2,0,0-.18.2-.27.3-1-.77-1.57-2-2.59-2.8-.76-.57-1.13-.39-1.43.77a2.69,2.69,0,0,0,.33,2.11,15.86,15.86,0,0,0,.93,1.47c.52.81.52.81-.37,1.51-.52.43-5.42,3.94-4.63,1.33.38-1.24,2.61-2.83,2.47-3.62C136.16,323.29,133.1,322,133.73,322.09Z"/><path class="cls-70" d="M129.62,301.49l.93-6.89s12.1,2.58,14.51,4,1.24,6.38,1.24,6.38Z"/><path class="cls-71" d="M127.65,299.31c.37,2.52.64,3.28,1,5.8a2.2,2.2,0,0,0,.33,1,2.34,2.34,0,0,0,1.12.66,33.65,33.65,0,0,0,14.34,1.7,8.35,8.35,0,0,0,4.75-1.62,8.23,8.23,0,0,0,2.53-6.5c-.06-1.78-2.09-7-2.16-8.8-2.92-.29-4.27.39-7.1-.33a28.83,28.83,0,0,0-.14,5.33c-5.08,1.07-7.27,1-14.68,2.77"/><path class="cls-64" d="M124.33,282.54a2.44,2.44,0,0,0-1.42-.71c-1-.13-2,.2-2.46-.35a5.79,5.79,0,0,1,2.59-.55,10,10,0,0,1,2.44.68c.33.19,1,2.85,1.6,4,.33.61,2.33,1.5,3.78,2.26a29.27,29.27,0,0,1,4.64,2.54,47.25,47.25,0,0,1,0-11.46,1.21,1.21,0,0,1,.23-.68,1,1,0,0,1,.89-.14c1.24.22,2.71.63,3.15,1.94a4.32,4.32,0,0,1,0,2L138,295a13.59,13.59,0,0,1-4.57-1.2c-3.32-1.67-6.83-5.49-7.43-6s-1.5-3.06-2.24-2.95a4.76,4.76,0,0,0-1.15.16c-.78.53-.71,1.32-1.67,1.63a9.11,9.11,0,0,1,1-2.2c.26-.26,1.28-.44,1.7-.68a13.86,13.86,0,0,0-1.62.12c-.3.11-.62.72-.84.94a3.25,3.25,0,0,1-1.2.79,6.16,6.16,0,0,1,1.75-2.56,10.86,10.86,0,0,1,2.6-.48"/><path class="cls-71" d="M139,273.62a4.65,4.65,0,0,0-4.31,3.07,6.76,6.76,0,0,0,.53,5.46l1.25-.42a4.27,4.27,0,0,0,.18,3.08c.38,1,1,1.86,1.44,2.81,1.3,2.62,2.88,6.89,2.27,9.76,4.28-.24,6.21-.82,10.48-1.05a18.14,18.14,0,0,1-1.1-4.36,23.44,23.44,0,0,1,1.43-11.6,1.64,1.64,0,0,0,1,1.34,7.91,7.91,0,0,1,.1-2.66,2.76,2.76,0,0,1,1.65-2,1.68,1.68,0,0,1,2.13,1.06,8.37,8.37,0,0,0-.31-4.5,3.46,3.46,0,0,0-3.6-2.19c-1.69.34-2.55,2.17-3.73,3.43a6.8,6.8,0,0,1-6.52,1.89,2.93,2.93,0,0,1-1.32-.65c-.7-.67-.79-1.79-1.45-2.5"/><path class="cls-64" d="M151.77,276.55a45.58,45.58,0,0,0,2.54,14.19,1.21,1.21,0,0,1,.11.72,1,1,0,0,1-.41.55c-4.68,3.44-8.95,7.83-13.43,11.74a12.39,12.39,0,0,1-2.2,1.65,6.22,6.22,0,0,0-1.49.88c-.72.68-1.48,3.45-1.66,4.49,1-.36,1.26-1.95,1.89-2.67a9.76,9.76,0,0,0-.52,5.08c2,.6,2.35-4.61,4.11-6.1.79-.68,3.35-3.13,4.23-3.66,5.27-3.19,6.56-4.26,10.08-6.59,1.62-1.08,3.8-1.9,4-4a12.21,12.21,0,0,0-.5-2.7c-.48-3.57-.74-5.21-1.69-10.53-.19-1,0-2.2-.58-3.07-1-1.53-3.16-1.32-4.6-.37"/><path class="cls-71" d="M149.76,291.87a23.46,23.46,0,0,1,1.43-11.6,1.64,1.64,0,0,0,1,1.34,7.91,7.91,0,0,1,.1-2.66,2.47,2.47,0,0,1,1.65-1.86,2.63,2.63,0,0,1,2.89,1.76,12.06,12.06,0,0,0-1.07-5.29,3.48,3.48,0,0,0-3.6-2.2c-1.69.35-2.55,2.18-3.73,3.43a6.8,6.8,0,0,1-6.52,1.9,3,3,0,0,1-1.32-.66"/><path class="cls-70" d="M139.4,283.62c2,.23,1.06.2,1.72.33a7.09,7.09,0,0,0,3.44.18c1.15-.2,4.12-1.05,5.1,2.28.11.39-.78.37-1.22.42a16,16,0,0,1-5.58-.51c-1.42-.33-1.93.18-3.38.23a4.14,4.14,0,0,1-1.06-.07,2.57,2.57,0,0,1-1.66-1.43S136.18,283.08,139.4,283.62Z"/><ellipse class="cls-64" cx="144.6" cy="262.82" rx="5.74" ry="7.82"/><path class="cls-33" d="M140.53,261.62c.13-.17.45-.16.63-.15s.52.15.52.41a.08.08,0,0,1-.06.09.19.19,0,0,1-.18-.06,1.44,1.44,0,0,0-.31-.19c-.21-.1-.36,0-.57,0A.07.07,0,0,1,140.53,261.62Z"/><ellipse class="cls-33" cx="141.24" cy="262.49" rx="0.66" ry="0.99"/><path class="cls-33" d="M144.89,261.71c.13-.17.45-.16.63-.15s.52.15.52.41a.08.08,0,0,1-.06.09.19.19,0,0,1-.18-.06,1.44,1.44,0,0,0-.31-.19c-.21-.1-.36,0-.57,0A.07.07,0,0,1,144.89,261.71Z"/><ellipse class="cls-33" cx="145.6" cy="262.58" rx="0.66" ry="0.99"/><path class="cls-72" d="M143.67,265.36a2.06,2.06,0,0,0-.85-.2c-.36.07-.35.32-.35.32S143.73,265.56,143.67,265.36Z"/><path class="cls-33" d="M143.59,265.36a.5.5,0,0,0-.28-.06c-.12,0-.11.05-.06.06S143.6,265.47,143.59,265.36Z"/><path class="cls-33" d="M142.72,265.3a.14.14,0,0,0-.14.06c-.08.11-.06.1.09.06S142.72,265.3,142.72,265.3Z"/><path class="cls-73" d="M145.13,266.63s-1.66-.09-2.24-.06a12.56,12.56,0,0,0-1.26.17,2.14,2.14,0,0,0,.69.81,3.43,3.43,0,0,0,1.84-.06C144.72,267.35,145.13,266.87,145.13,266.63Z"/><path class="cls-74" d="M141.62,266.82s.21.31.28.39a4,4,0,0,0,1.26,0c.7-.05,1.48.08,1.67-.12a.88.88,0,0,0,.13-.37s-1.65-.06-2-.05S141.62,266.82,141.62,266.82Z"/><path class="cls-75" d="M144.68,266.49s.66.06.61.16a2.72,2.72,0,0,1-.59.5Z"/><path class="cls-74" d="M142.37,267.65s-.43-.25-.36-.3a3.94,3.94,0,0,1,.92-.21,6.6,6.6,0,0,1,1.74.13,6.67,6.67,0,0,1-.93.39A6.53,6.53,0,0,1,142.37,267.65Z"/><polygon class="cls-76" points="145.09 266.76 143.35 266.61 145.13 266.61 145.09 266.76"/><path class="cls-76" d="M141.72,266.81l.58-.11a4.14,4.14,0,0,0-.39.14.16.16,0,0,0-.1.11Z"/><path class="cls-73" d="M145,266.54s.31,0,.31.1-.36.31-.36.31Z"/><path class="cls-77" d="M141.86,267.08a1.27,1.27,0,0,0,.84.42,3.38,3.38,0,0,0,2-.46,2.77,2.77,0,0,1,.65-.42,3.55,3.55,0,0,1-.46.69,2.69,2.69,0,0,1-1.16.64,1.77,1.77,0,0,1-1.43-.08C141.93,267.68,141.57,266.78,141.86,267.08Z"/><path class="cls-78" d="M144.31,266.64l1-.06c.2,0,.06.13-.05.15a2.47,2.47,0,0,0-.44.22s.43-.29.38-.3h-.91Z"/><path class="cls-79" d="M144.57,267.24a4.38,4.38,0,0,1-.6.27c-.24.07-.19.14,0,.09a2,2,0,0,0,.55-.35"/><path class="cls-80" d="M144.67,266.54l-.7-.09c-.23,0-.37,0-.18.05A4.92,4.92,0,0,0,144.67,266.54Z"/><path class="cls-78" d="M145.08,266.64s.08,0,.06,0-.29.26-.29.26a3,3,0,0,1,.37-.22.19.19,0,0,0,.11-.1h-.18"/><path class="cls-78" d="M141.58,266.76a2.72,2.72,0,0,0,.17.36c.11.18.1.31.37.43s.32,0,.32,0Z"/><path class="cls-81" d="M145.21,266.62s-1.7-.1-2.29-.07-1.37.07-1.37.07a2.88,2.88,0,0,0,.83,1,3.6,3.6,0,0,0,1.84-.11C144.79,267.34,145.22,267,145.21,266.62Z"/><path class="cls-82" d="M141.7,266.58a3.31,3.31,0,0,0,.39.45c.19.12.35.22,1,.19a6.21,6.21,0,0,0,1.61-.24,1.06,1.06,0,0,0,.26-.32s-1.63-.1-1.95-.1Z"/><path class="cls-82" d="M141.63,266.62h1a2.06,2.06,0,0,0-.5.21.78.78,0,0,0,0,.26l-.26-.15v.15Z"/><path class="cls-82" d="M144.45,266.47s.59,0,.58.11a.47.47,0,0,1-.54.45Z"/><path class="cls-81" d="M145.07,266.56s.31-.05.3,0a2.59,2.59,0,0,1-.36.52Z"/><path class="cls-82" d="M142.55,267.66s-.46-.11-.38-.15a4.47,4.47,0,0,1,1-.19,3.83,3.83,0,0,1,1.18,0s-.05.22-.42.3A7.43,7.43,0,0,1,142.55,267.66Z"/><polygon class="cls-73" points="141.67 266.79 141.79 266.58 142.14 267.17 142.5 267.42 142.24 267.5 141.92 267.17 141.67 266.79"/><polygon class="cls-82" points="144.98 266.73 142.94 266.62 145.01 266.59 144.98 266.73"/><path class="cls-72" d="M142.58,266.23a.56.56,0,0,0,.32.1.88.88,0,0,0,.37-.12S142.67,266.09,142.58,266.23Z"/><path class="cls-83" d="M142,267.17c-.13-.08-.26-.37-.34-.43s-.19-.24-.14-.15.08.24.12.32a2.44,2.44,0,0,0,.17.33C141.85,267.29,142.14,267.26,142,267.17Z"/><path class="cls-77" d="M141.62,266.56s-.22,0,.95-.11c.81-.07,2.34.06,2.73,0s-.31.2-.72.2-1.24,0-1.79.05S141.64,266.66,141.62,266.56Z"/><path class="cls-77" d="M142.53,267.39s-.23,0-.23.18a.58.58,0,0,0,.16.33,1.11,1.11,0,0,1-.59-.46c-.24-.37,0-.3,0-.3s.08,0,.28.07A2.51,2.51,0,0,0,142.53,267.39Z"/><path class="cls-70" d="M141.53,266.64s0-.33,1.14-.42a10.6,10.6,0,0,1,2.65.35,3,3,0,0,1-.89.08c-.37,0-1.12,0-1.68,0C141.85,266.73,141.56,266.83,141.53,266.64Z"/><path class="cls-70" d="M141.92,267.07a1.08,1.08,0,0,0,.7.33,4.21,4.21,0,0,0,2.07-.31,1.94,1.94,0,0,0,.7-.5,2.48,2.48,0,0,1-.35.55,2.51,2.51,0,0,1-1.56.72,1.71,1.71,0,0,1-1.31-.18C141.83,267.49,141.61,266.83,141.92,267.07Z"/><path class="cls-70" d="M142.69,268a1,1,0,0,1-.58-.32s.15.2.75.25a2.71,2.71,0,0,0,1.3-.17,4.6,4.6,0,0,0,.85-.57,2.68,2.68,0,0,1-1.13.8A2.4,2.4,0,0,1,142.69,268Z"/><path class="cls-70" d="M142.49,267.38a3.09,3.09,0,0,1-.6-.39,1.3,1.3,0,0,1-.19-.3c0-.06-.22-.16-.2-.11a1.77,1.77,0,0,0,.41.68C142.07,267.35,142.65,267.44,142.49,267.38Z"/><path class="cls-70" d="M141.74,266.68s-.2-.26-.26-.18.21.43.21.43.31.24.27.19Z"/><path class="cls-70" d="M141.65,266.6a.91.91,0,0,0,.54.12l.85,0,1.67,0a2.46,2.46,0,0,0,.44-.1s-.76,0-1.22,0-.72,0-1.18,0S141.65,266.6,141.65,266.6Z"/><path class="cls-70" d="M144.47,266.65a8,8,0,0,1,.86-.2c.23,0,.09.19-.06.32s-.37.21-.38.22.46-.28.36-.38-.29,0-.29,0Z"/><path class="cls-70" d="M142.32,266.63a1.39,1.39,0,0,1-.34-.08.26.26,0,0,1-.12-.13.29.29,0,0,0-.17.06l-.09.06s0,.07.19.11h.26Z"/><path d="M141.86,266.68l-.18-.06s0,.05.11.24a1.44,1.44,0,0,0,.71.52c.13,0,.09-.06.14-.05l-.59-.28a2,2,0,0,1-.13-.18A1,1,0,0,0,141.86,266.68Z"/><path class="cls-84" d="M152.83,266a3.52,3.52,0,0,0,.3-1.48c.56-3.75-.22-8.56-4-10.07-3.6-1.43-7.78-1.21-10.05,1.72a18.9,18.9,0,0,0-2.3,4.6c-.14,2.29,1.08,4.78,1,6.32-.1,1.92.92,2.91,1.18,4.87.29,2.11-2.4,1.33-1,3,2.05,2.31,7.25-3.32,4.65-4.78a6.24,6.24,0,0,1-3.29-4.78c-.06-.37,0-4.08.28-4.16,0,0,5.46-1.29,7.62-3.45.09,2.14.56,2.51,2.87,7.14,0,0-.93,2.49-.91,2.51-.54,1.48-2.81,2.81-2.81,2.81-1,2.42,3.24,5,4.78,2.71a6,6,0,0,0,1.3-4.33,16.85,16.85,0,0,0,.34-2.11Z"/><rect class="cls-10" x="312.34" y="292.67" width="5.12" height="10.41" transform="translate(33.04 -31.44) rotate(6.03)"/><rect class="cls-10" x="312.62" y="311.13" width="2.2" height="10.41" transform="translate(34.97 -31.21) rotate(6.03)"/><path class="cls-8" d="M311.16,295.19c2,1.06,7.16,6.77,7.16,6.77s-1.06,11.59-1.78,12.31a4.88,4.88,0,0,1-2.82,1.55c-.88,0-1.92-.85-2.38-2.58S310.07,297.16,311.16,295.19Z"/><rect class="cls-10" x="312.43" y="326.25" width="1.46" height="10.41" transform="translate(36.56 -31.07) rotate(6.03)"/><polygon class="cls-34" points="311.07 333.87 314.2 333.85 313.86 343.8 312.96 344.69 309.97 344.28 309.37 343.24 311.07 333.87"/><path class="cls-8" d="M311.6,315.94c2.57,2.25,4.33-.37,4.92.69s-2,15.95-2,15.95-2.24.92-2.93-.1C310.05,317.92,311,315.35,311.6,315.94Z"/><path class="cls-8" d="M288.15,284.94c2.85-.86,13.48-2.31,15.32-1.67s.35,1.43.37,1.68c0,.67.52.6-.08,1.28s-2.1,1-3.36,1.1c-3.24.28-12.2-.24-12.2-.24"/><path class="cls-8" d="M302.77,283.64a67,67,0,0,1,2-8.57c1-3.46,4.28-7.39,5.17-6.25a29,29,0,0,1-.32,6.73,42.16,42.16,0,0,1-2.48,6.32l-1.9,3.84-1.43-.69c-.37-1.19.86-.37,0-1"/><ellipse class="cls-9" cx="303.88" cy="284.48" rx="1.85" ry="1.89" transform="translate(-106.08 212.31) rotate(-33.13)"/><path class="cls-9" d="M309.62,268.66c-.06,1.56,0,4.24.05,5.19,0,.65,3,.81,2.44-.75a6.07,6.07,0,0,1,0-3.86C312.6,267.68,309.75,267.8,309.62,268.66Z"/><path class="cls-8" d="M278.83,283c-.24.27-.16.43-.05.52a5.17,5.17,0,0,0,.56.27l.62.4s.3.3.41.39.37.2.51.31.81.55.81.55l.45.33a6.19,6.19,0,0,0,1.82.53s.32,0,.48,0a3.8,3.8,0,0,1,1.12.14l1.08.46.76-2.47a31.65,31.65,0,0,0-3.75-3.43c-1.09-.64-3.62-.31-3.62-.31l-2.21.37s-1,.21-.91.42c.18.61,1.41.84,1.41.84l.71-.09c.71-.09.71-.17,1.23.07a5.2,5.2,0,0,1,.52.24,5.53,5.53,0,0,1,1.14.72l.26.35c-.45.21-1.52-.61-1.52-.61l-.24-.13s-.08-.16-.69-.18A1.27,1.27,0,0,0,278.83,283Z"/><path class="cls-9" d="M288.82,285.93a1.44,1.44,0,0,1-1.46,1.46A1.41,1.41,0,0,1,286,285.9a1.28,1.28,0,0,1,1.29-1.43A1.52,1.52,0,0,1,288.82,285.93Z"/><rect class="cls-10" x="317.39" y="281.48" width="3.55" height="10.41" transform="translate(648.74 561.37) rotate(177.88)"/><path class="cls-8" d="M334.15,300.37c.61-2.91,1.12-13.63.32-15.41s-1.45-.23-1.71-.22c-.67,0-.64-.46-1.26.19s-.8,2.18-.8,3.44c0,3.26,1.31,12.14,1.31,12.14"/><path class="cls-8" d="M333.87,283.36a66.83,66.83,0,0,0-1.3-8.69c-.76-3.53-3.71-7.7-4.69-6.63a29.23,29.23,0,0,0-.19,6.74,43.3,43.3,0,0,0,2,6.48l1.61,4,1.47-.57c.46-1.16-.83-.43.09-1"/><ellipse class="cls-9" cx="332.49" cy="283.81" rx="1.85" ry="1.6" transform="translate(-19.57 542.94) rotate(-76.84)"/><rect class="cls-10" x="316.73" y="259.42" width="3.55" height="10.41" transform="translate(646.59 517.28) rotate(177.88)"/><rect class="cls-9" x="310.48" y="254.06" width="4.08" height="4.97" rx="2.04" ry="2.04" transform="translate(634.32 501.36) rotate(177.88)"/><path class="cls-8" d="M318.6,259.26a3.06,3.06,0,0,0-.23-6.12l-5.9.22a2.94,2.94,0,0,0-.89.18c.88-3.16,3.3-5.48,6.24-5.59,3.81-.14,7,3.48,7.21,8.09s-2.78,8.45-6.59,8.59c-3,.11-5.62-2.1-6.69-5.28a2.93,2.93,0,0,0,.94.12Z"/><path class="cls-10" d="M311.58,253.54a2.94,2.94,0,0,1,.89-.18l5.9-.22a3.06,3.06,0,0,1,.23,6.12l-5.91.21a2.93,2.93,0,0,1-.94-.12,9.85,9.85,0,0,1-.17-5.81Z"/><circle class="cls-11" cx="317.06" cy="256.47" r="0.95"/><circle class="cls-11" cx="312.83" cy="256.63" r="0.95"/><rect class="cls-9" x="321.82" y="253.81" width="4.08" height="4.99" rx="2.04" ry="2.04" transform="translate(656.98 500.45) rotate(177.88)"/><path class="cls-9" d="M327.88,268c0,1.55-.19,4.23-.27,5.18-.06.64-3,.69-2.41-.85a6.14,6.14,0,0,0,.17-3.86C324.94,266.88,327.78,267.13,327.88,268Z"/><path class="cls-8" d="M330.61,309.26c-.36,0-.45-.13-.45-.27a3.86,3.86,0,0,1,.1-.6l0-.75s-.08-.41-.09-.55.05-.42.05-.61,0-1,0-1,0,0,0-.56a6.59,6.59,0,0,1,.63-1.79s.17-.27.24-.42a3.53,3.53,0,0,0,.53-1,2.06,2.06,0,0,0,0-.74l2.67.41a31.37,31.37,0,0,1,.63,5c-.11,1.26-1.84,3.13-1.84,3.13l-1.58,1.59s-.74.67-.87.5c-.4-.5.13-1.63.13-1.63l.48-.53c.49-.53.55-.49.66-1.05a5,5,0,0,0,.11-.56,6.25,6.25,0,0,0,.07-1.35l-.14-.41c-.43.25-.38,1.59-.38,1.59l0,.27s.08.16-.25.67A1.31,1.31,0,0,1,330.61,309.26Z"/><path class="cls-9" d="M332.88,299.4a1.4,1.4,0,0,0-1.25,1.57,1.37,1.37,0,0,0,1.53,1.23,1.24,1.24,0,0,0,1.23-1.41A1.47,1.47,0,0,0,332.88,299.4Z"/><path class="cls-8" d="M314.13,266.68c3-.29,5.45-.21,8.91-.31a3.7,3.7,0,0,1,.47,0L318.76,269Z"/><path class="cls-8" d="M313.24,266.76l.23.39,3.2,2,2.07,4.15,2.15-4.16,3.89-2.62a2.3,2.3,0,0,1,1.93,2.17c.15,3.92-1.63,14.05-2.06,15.07-5,2.56-11.51.85-11.59.58a84,84,0,0,1-2.31-14.76A2.45,2.45,0,0,1,313.24,266.76Z"/><path class="cls-10" d="M318.74,273.32l-2.28-4.06-4.12-2.32.6-.15.7-.06.49-.05,4.56,1.95,4.82-2.27a5.58,5.58,0,0,1,1.27.18l-3.89,2.62Z"/><rect class="cls-10" x="320.61" y="292.73" width="5.12" height="10.41" transform="matrix(-1, 0.04, -0.04, -1, 657.14, 583.72)"/><path class="cls-8" d="M311.07,292.39c.13-.31,1.41-5.1,2.58-5,.52,0,3.07,3,5.31,3.07,2.08,0,5.51-3.63,5.86-3.38.54.22,2,3.74,1.79,5.89-.08.94-4.73,5.35-7.43,5.53C314.28,298.73,310.75,293.14,311.07,292.39Z"/><rect class="cls-10" x="321.99" y="311.23" width="2.2" height="10.41" transform="translate(657.67 620.7) rotate(177.88)"/><path class="cls-8" d="M327,295.27c-2.11.91-7.6,6.26-7.6,6.26s.27,11.63.93,12.41a4.91,4.91,0,0,0,2.71,1.73c.88.05,2-.71,2.55-2.41S328,297.31,327,295.27Z"/><rect class="cls-10" x="321.89" y="326.36" width="1.46" height="10.41" transform="translate(657.29 650.97) rotate(177.88)"/><polygon class="cls-34" points="324.05 334.07 320.93 333.83 320.59 343.78 321.42 344.73 324.43 344.53 325.11 343.52 324.05 334.07"/><path class="cls-8" d="M325.08,316c-2.71,2.07-4.29-.66-4.95.35s.95,16.06.95,16.06,2.17,1.06,2.93.1C326.49,318.1,325.77,315.47,325.08,316Z"/><text class="cls-52" transform="translate(34.24 83.6)">L</text><circle class="cls-85" cx="259.33" cy="144.33" r="3.41"/><rect class="cls-51" x="5.5" y="5.82" width="368.97" height="362.68" rx="12" ry="12"/><path class="cls-32" d="M207.76,198.85v3.46c0,.75,0,1.39,0,2-.26-.48-.54-1-.87-1.49h0l-2.52-4h-1.47V207h1.43v-3.52c0-.81,0-1.48,0-2.12.3.55.61,1.1.95,1.64l2.51,4h1.39v-8.16h-1.43Z"/><path class="cls-32" d="M215.17,198.72a3.52,3.52,0,0,0-2.72,1.18,4.52,4.52,0,0,0-1.07,3.09,4.42,4.42,0,0,0,1,3,3.51,3.51,0,0,0,2.67,1.16,3.64,3.64,0,0,0,2.69-1.11,5,5,0,0,0,.12-6.14A3.48,3.48,0,0,0,215.17,198.72Zm0,7.11a2,2,0,0,1-1.62-.83,3.48,3.48,0,0,1-.59-2,3.69,3.69,0,0,1,.57-2.08,2,2,0,0,1,3.28,0,3.94,3.94,0,0,1,0,4.1A1.91,1.91,0,0,1,215.13,205.83Z"/><path class="cls-32" d="M228.38,198.85l-1.06,4.05h0l-.37,1.48c-.09-.48-.2-1-.32-1.46l-1-4.08h-1.42l-1.07,4.05c-.15.54-.28,1-.39,1.54-.11-.48-.22-1-.35-1.52l-.95-4.07H219.9L222,207h1.42l1.15-4.17c.13-.47.24-.89.34-1.28.08.39.17.81.29,1.27l1,4.18h1.42l2.31-8.16Z"/></g></g></svg>