<?xml version="1.0" encoding="utf-8"?>
<!-- Generator: Adobe Illustrator 22.0.1, SVG Export Plug-In . SVG Version: 6.00 Build 0)  -->
<svg version="1.1" id="Layer_1" xmlns="http://www.w3.org/2000/svg" xmlns:xlink="http://www.w3.org/1999/xlink" x="0px" y="0px"
	 viewBox="0 0 319 678.9" style="enable-background:new 0 0 319 678.9;" xml:space="preserve">
<style type="text/css">
	.st0{fill:#4285F4;stroke:#4285F4;stroke-width:0.25;stroke-miterlimit:10;}
	.st1{fill:#4285F4;}
	.st2{fill:none;stroke:#4285F4;stroke-width:5;stroke-miterlimit:10;}
	.st3{fill:#444444;stroke:#444444;stroke-width:0.5;stroke-miterlimit:10;}
	.st4{font-family:'GTWalsheimRegular';}
	.st5{font-size:20px;}
	.st6{fill:#FFFFFF;}
	.st7{fill:none;stroke:#FFFFFF;stroke-width:2;stroke-miterlimit:10;}
	.st8{fill:none;stroke:#FFFFFF;stroke-width:2;stroke-linecap:round;stroke-miterlimit:10;}
	.st9{font-size:15.4px;}
	.st10{font-size:12px;}
</style>
<circle class="st1" cx="123.9" cy="40.2" r="35"/>
<line class="st2" x1="123.9" y1="40.2" x2="123.9" y2="655.2"/>
<text transform="matrix(1 0 0 1 7.772 47.194)" class="st3 st4 st5">STEP 1</text>
<circle class="st1" cx="124" cy="138.6" r="35"/>
<circle class="st1" cx="123.3" cy="237.6" r="35"/>
<circle class="st1" cx="124" cy="336.5" r="35"/>
<circle class="st1" cx="124.3" cy="436.2" r="35"/>
<circle class="st1" cx="124.2" cy="536.2" r="35"/>
<circle class="st1" cx="123.8" cy="636.1" r="35"/>
<text transform="matrix(1 0 0 1 5.9803 147.2015)" class="st3 st4 st5">STEP 2</text>
<text transform="matrix(1 0 0 1 5.8733 246.0997)" class="st3 st4 st5">STEP 3</text>
<text transform="matrix(1 0 0 1 6.2548 343.2001)" class="st3 st4 st5">STEP 4</text>
<text transform="matrix(1 0 0 1 5.7663 444.1794)" class="st3 st4 st5">STEP 5</text>
<text transform="matrix(1 0 0 1 6.1112 541.7896)" class="st3 st4 st5">STEP 6</text>
<text transform="matrix(1 0 0 1 6.501 642.6147)" class="st3 st4 st5">STEP 7</text>
<g>
	<g>
		<g>
			<g>
				<path class="st6" d="M144.1,528.9v-2.8v-0.6c0-3.2-2.9-5.9-6.4-6l0,0v1.4l0,0v1.4v0v0.8c0,2.1-1.7,3.8-3.8,3.8s-3.8-1.7-3.8-3.8
					v-0.8v-1.4v-1.4h-10.8v1.4v1.4v0.8c0,2.1-1.7,3.8-3.8,3.8c-2.1,0-3.8-1.7-3.8-3.8v-0.8v0v-1.4l0,0v-1.4l0,0
					c-3.5,0.1-6.3,2.8-6.3,6v0.6v2.8v19.9c0,3.6,3,6.6,6.6,6.6h25.5c3.6,0,6.6-3,6.6-6.6V528.9L144.1,528.9z M142.2,548.8
					c0,2.1-1.7,4.7-3.7,4.7h-27.4c-2.1,0-3.7-2.6-3.7-4.7v-19.9h34.9V548.8z"/>
				<path class="st6" d="M113.8,518.4v1.1v1.4v1.4v0.8c0,0.9,0.7,1.7,1.7,1.7c0.9,0,1.7-0.7,1.7-1.7v-0.8v-1.4v-1.4v-1.1
					c0-0.9-0.7-1.7-1.7-1.7C114.6,516.8,113.8,517.5,113.8,518.4z"/>
				<path class="st6" d="M133.9,516.8c-0.9,0-1.7,0.7-1.7,1.7v1.1v1.4v1.4v0.8c0,0.9,0.7,1.7,1.7,1.7c0.9,0,1.7-0.7,1.7-1.7v-0.8
					v-1.4v-1.4v-1.1C135.6,517.5,134.8,516.8,133.9,516.8z"/>
			</g>
		</g>
	</g>
	<g>
		<path class="st6" d="M122.7,535.1c-0.4-0.4-0.9-0.8-1.5-1c-0.6-0.3-1.3-0.4-2-0.4c-0.7,0-1.4,0.1-2,0.4c-0.6,0.3-1.1,0.6-1.5,1
			c-0.4,0.4-0.7,0.9-1,1.5c-0.2,0.6-0.3,1.2-0.3,1.8v4.7c0,0.6,0.1,1.2,0.3,1.8c0.2,0.6,0.5,1.1,1,1.5c0.4,0.4,0.9,0.8,1.5,1
			c0.6,0.3,1.2,0.4,2,0.4c0.7,0,1.4-0.1,2-0.4c0.6-0.3,1.1-0.6,1.5-1c0.4-0.4,0.7-1,1-1.5c0.2-0.6,0.3-1.2,0.3-1.8v-4.7
			c0-0.6-0.1-1.2-0.3-1.8C123.5,536,123.1,535.5,122.7,535.1z M119.2,545.9c-0.4,0-0.7-0.1-1.1-0.2c-0.3-0.1-0.6-0.3-0.8-0.6l0,0
			c-0.2-0.3-0.4-0.5-0.5-0.9c-0.1-0.3-0.2-0.7-0.2-1.1v-4.7c0-0.4,0.1-0.7,0.2-1.1l0,0c0.1-0.3,0.3-0.6,0.5-0.9
			c0.2-0.2,0.5-0.4,0.8-0.6c0.3-0.1,0.7-0.2,1.1-0.2c0.4,0,0.8,0.1,1.1,0.2c0.3,0.1,0.6,0.3,0.8,0.6c0.2,0.2,0.4,0.5,0.5,0.9l0,0
			c0.1,0.3,0.2,0.7,0.2,1.1v4.7c0,0.4-0.1,0.7-0.2,1.1c-0.1,0.3-0.3,0.6-0.5,0.9c-0.2,0.2-0.5,0.4-0.8,0.6
			C120,545.8,119.6,545.9,119.2,545.9z"/>
		<path class="st6" d="M134.5,541.3c-0.2-0.6-0.6-1.1-1-1.5c-0.4-0.4-0.9-0.8-1.5-1c-0.6-0.3-1.3-0.4-2-0.4c-0.1,0-0.2,0-0.3,0
			l2.9-4.5h-2.6l-4.1,6.5l0,0c-0.3,0.4-0.5,0.8-0.6,1.3c-0.1,0.5-0.2,1-0.2,1.5c0,0.6,0.1,1.2,0.3,1.8c0.2,0.6,0.5,1.1,1,1.5
			c0.4,0.4,0.9,0.8,1.5,1c0.6,0.3,1.2,0.4,2,0.4c0.7,0,1.4-0.1,2-0.4c0.6-0.3,1.1-0.6,1.5-1c0.4-0.4,0.7-1,1-1.5
			c0.2-0.6,0.3-1.2,0.3-1.8C134.8,542.5,134.7,541.9,134.5,541.3z M130,545.8c-0.4,0-0.7-0.1-1.1-0.2c-0.3-0.1-0.6-0.3-0.8-0.6l0,0
			c-0.2-0.3-0.4-0.5-0.5-0.9c-0.1-0.3-0.2-0.7-0.2-1.1c0-0.4,0.1-0.7,0.2-1.1c0.1-0.3,0.3-0.6,0.5-0.9c0.2-0.2,0.5-0.4,0.8-0.6
			c0.3-0.1,0.7-0.2,1.1-0.2c0.4,0,0.8,0.1,1.1,0.2c0.3,0.1,0.6,0.3,0.8,0.6c0.2,0.2,0.4,0.5,0.5,0.9c0.1,0.3,0.2,0.7,0.2,1.1
			c0,0.4-0.1,0.7-0.2,1.1c-0.1,0.3-0.3,0.6-0.5,0.9c-0.2,0.2-0.5,0.4-0.8,0.6C130.8,545.8,130.4,545.8,130,545.8z"/>
	</g>
</g>
<g>
	<path class="st7" d="M137.5,251.2h-27.6c-3.3,0-6-2.7-6-6v-15.3c0-3.3,2.7-6,6-6h27.6c3.3,0,6,2.7,6,6v15.3
		C143.4,248.5,140.8,251.2,137.5,251.2z"/>
	<rect x="103.9" y="230.9" class="st6" width="39.6" height="5.2"/>
</g>
<g>
	<g>
		<g>
			<path class="st6" d="M124,350.2c-0.4,0-0.8-0.1-1-0.4l-3.5-3.9c-0.5-0.5-0.4-1.3,0.1-1.7c0.5-0.5,1.3-0.4,1.7,0.1l2.3,2.5l5.1-7
				c0.3-0.6,1-0.9,1.7-0.5c0.6,0.3,0.9,1,0.5,1.7l-5.9,8.6C124.8,349.9,124.4,350.1,124,350.2C124,350.2,124,350.2,124,350.2
				L124,350.2z"/>
		</g>
	</g>
	<path class="st7" d="M137.7,323.2v27.6c0,3.3-2.7,6-6,6h-15.3c-3.3,0-6-2.7-6-6v-27.6c0-3.3,2.7-6,6-6h15.3
		C135,317.2,137.7,319.9,137.7,323.2z"/>
	<line class="st8" x1="115.4" y1="324.9" x2="132.6" y2="324.9"/>
	<line class="st8" x1="115.4" y1="331.5" x2="132.6" y2="331.5"/>
</g>
<g>
	<line class="st8" x1="115.7" y1="433" x2="132.9" y2="433"/>
	<line class="st8" x1="115.7" y1="439.6" x2="132.9" y2="439.6"/>
	<line class="st8" x1="115.6" y1="446.4" x2="128.2" y2="446.4"/>
	<g>
		<path class="st7" d="M137.5,425.8l0.1,23c0,3.3-2.7,6-6,6h-15.3c-3.3,0-6-2.7-6-6v-27.6c0-3.3,2.7-6,6-6h11.7L137.5,425.8z"/>
		<path class="st7" d="M137.5,425.8h-3.8c-3.3,0-6-2.7-6-6v-4.6"/>
	</g>
</g>
<g>
	<g>
		<g>
			<g>
				<path class="st7" d="M124.2,52.4l-8,5.4c-2.3,1.6-5.5,1-7.1-1.3L98.6,41.5c-1.6-2.3-1-5.5,1.3-7.1l9.2-6.4"/>
			</g>
			<g>
				<path class="st7" d="M98.6,41.5c-1.6-2.3-1-5.5,1.3-7.1l9.2-6.4c1.4-1,3.1-1.1,4.5-0.7"/>
			</g>
		</g>
		<g>
			<g>
				<path class="st7" d="M124.4,52.5l8,5.4c2.3,1.6,5.5,1,7.1-1.3l10.5-15.1c1.6-2.3,1-5.5-1.3-7.1l-9.2-6.4"/>
			</g>
			<g>
				<path class="st7" d="M149.9,41.6c1.6-2.3,1-5.5-1.3-7.1l-9.2-6.4c-1.4-1-3.1-1.1-4.5-0.7c0,0-0.8,0.4-1.3,0.7
					c-0.5,0.3-0.7,0.6-1,1.1"/>
			</g>
		</g>
	</g>
	<g>
		<path class="st7" d="M134.8,31.7l0,15.8c0,2.5-2.1,4.6-4.6,4.6h-11.9c-2.5,0-4.6-2.1-4.6-4.6V28.1c0-2.5,2.1-4.6,4.6-4.6h9
			L134.8,31.7z"/>
		<path class="st7" d="M134.8,31.7h-2.9c-2.5,0-4.6-2.1-4.6-4.6v-3.6"/>
	</g>
</g>
<g>
	<g>
		<g>
			<path class="st6" d="M118,630c-0.2,0-0.5-0.1-0.7-0.3l-2.3-2.5c-0.3-0.3-0.3-0.8,0-1.1c0.3-0.3,0.8-0.3,1.1,0l1.5,1.6l3.3-4.5
				c0.2-0.4,0.7-0.5,1.1-0.4c0.4,0.2,0.5,0.7,0.4,1.1l-3.8,5.5C118.5,629.8,118.3,630,118,630C118,630,118,630,118,630L118,630z"/>
		</g>
	</g>
	<path class="st7" d="M137.3,623.2v25.7c0,3.3-2.7,6-6,6H116c-3.3,0-6-2.7-6-6v-25.7c0-3.3,2.7-6,6-6h15.3
		C134.6,617.2,137.3,619.9,137.3,623.2z"/>
	<line class="st8" x1="126.6" y1="627.4" x2="132" y2="627.4"/>
	<line class="st8" x1="126.5" y1="636.6" x2="132" y2="636.6"/>
	<line class="st8" x1="126.5" y1="646.1" x2="132" y2="646.1"/>
	<g>
		<g>
			<path class="st6" d="M118,639.7c-0.2,0-0.5-0.1-0.7-0.3l-2.3-2.5c-0.3-0.3-0.3-0.8,0-1.1c0.3-0.3,0.8-0.3,1.1,0l1.5,1.6l3.3-4.5
				c0.2-0.4,0.7-0.5,1.1-0.4c0.4,0.2,0.5,0.7,0.4,1.1l-3.8,5.5C118.5,639.5,118.3,639.6,118,639.7C118,639.7,118,639.7,118,639.7
				L118,639.7z"/>
		</g>
	</g>
	<g>
		<g>
			<path class="st6" d="M118,649c-0.2,0-0.5-0.1-0.7-0.3l-2.3-2.5c-0.3-0.3-0.3-0.8,0-1.1c0.3-0.3,0.8-0.3,1.1,0l1.5,1.6l3.3-4.5
				c0.2-0.4,0.7-0.5,1.1-0.4c0.4,0.2,0.5,0.7,0.4,1.1l-3.8,5.5C118.5,648.8,118.3,648.9,118,649C118,649,118,649,118,649L118,649z"
				/>
		</g>
	</g>
</g>
<g>
	<path class="st7" d="M137.9,124.4V152c0,3.3-2.7,6-6,6h-15.3c-3.3,0-6-2.7-6-6v-27.6c0-3.3,2.7-6,6-6h15.3
		C135.2,118.4,137.9,121.1,137.9,124.4z"/>
	<line class="st8" x1="116" y1="134.4" x2="133.2" y2="134.4"/>
	<line class="st8" x1="116" y1="141.1" x2="133.2" y2="141.1"/>
	<line class="st8" x1="116" y1="147.8" x2="128.5" y2="147.8"/>
	<line class="st8" x1="115.9" y1="128.1" x2="133.1" y2="128.1"/>
</g>
<text transform="matrix(0.9552 0 0 1 175.2253 20.9473)"><tspan x="0" y="0" class="st0 st4 st9">CHOOSE YOUR SET </tspan><tspan x="0" y="17" class="st0 st4 st9">OF TECHNOLOGIES, </tspan><tspan x="0" y="34" class="st0 st4 st9">CONCEPTS, </tspan><tspan x="0" y="50.9" class="st0 st4 st9">FRAMEWORKS</tspan></text>
<text transform="matrix(1 0 0 1 175.1386 138.1898)"><tspan x="0" y="0" class="st0 st4 st9">COMPLETE EXAM </tspan><tspan x="0" y="18.5" class="st0 st4 st9">APPLICATION</tspan></text>
<text transform="matrix(1 0 0 1 175.6144 233.0882)"><tspan x="0" y="0" class="st0 st4 st9">MAKE EXAM </tspan><tspan x="0" y="18.5" class="st0 st4 st9">FEE PAYMENT</tspan></text>
<text transform="matrix(1 0 0 1 175.6618 435.9185)"><tspan x="0" y="0" class="st0 st4 st9">RECEIVE ELIGIBILITY </tspan><tspan x="0" y="18.5" class="st0 st4 st9">NOTIFICATION</tspan></text>
<text transform="matrix(1 0 0 1 175.4827 536.5962)"><tspan x="0" y="0" class="st0 st4 st9">CHOOSE DATE </tspan><tspan x="0" y="18.5" class="st0 st4 st9">FOR EXAM</tspan></text>
<text transform="matrix(1 0 0 1 173.9039 642.7557)" class="st0 st4 st9">TAKE EXAM</text>
<g>
	<text transform="matrix(1 0 0 1 177.1538 327.1756)"><tspan x="0" y="0" class="st0 st4 st9">COMPLETE AUDIT </tspan><tspan x="0" y="18.5" class="st0 st4 st9">PROCESS </tspan></text>
	<text transform="matrix(1 0 0 1 175.3015 361.1336)" class="st0 st4 st10">(IF SELECTED FOR AUDIT)</text>
</g>
</svg>
